Nobile-Regular.ufo
<glyph name="numbersign" format="1">
  <advance width="1372"/>
  <unicode hex="0023"/>
  <outline>
    <contour>
      <point x="181" y="0" type="line"/>
      <point x="309" y="0" type="line"/>
      <point x="619" y="1578" type="line"/>
      <point x="473" y="1578" type="line"/>
    </contour>
    <contour>
      <point x="110" y="533" type="line"/>
      <point x="1232" y="533" type="line"/>
      <point x="1232" y="624" type="line"/>
      <point x="110" y="624" type="line"/>
    </contour>
    <contour>
      <point x="140" y="933" type="line"/>
      <point x="1262" y="933" type="line"/>
      <point x="1262" y="1024" type="line"/>
      <point x="140" y="1024" type="line"/>
    </contour>
    <contour>
      <point x="751" y="0" type="line"/>
      <point x="879" y="0" type="line"/>
      <point x="1189" y="1578" type="line"/>
      <point x="1043" y="1578" type="line"/>
    </contour>
  </outline>
</glyph>
<glyph name="dollar" format="1">
  <advance width="1008"/>
  <unicode hex="0024"/>
  <outline>
    <contour>
      <point x="474" y="-195" type="line"/>
      <point x="565" y="-195" type="line"/>
      <point x="565" y="1620" type="line"/>
      <point x="474" y="1620" type="line"/>
    </contour>
    <component base="s" yOffset="133"/>
  </outline>
</glyph>
<glyph name="ampersand" format="1">
  <advance width="1548"/>
  <unicode hex="0026"/>
  <outline>
    <contour>
      <point x="659" y="-39" type="curve" smooth="yes"/>
      <point x="825" y="-39"/>
      <point x="1133" y="6"/>
      <point x="1220" y="170" type="curve"/>
      <point x="1431" y="-7" type="line"/>
      <point x="1517" y="95" type="line"/>
      <point x="1291" y="277" type="line"/>
      <point x="1324" y="446"/>
      <point x="1338" y="624"/>
      <point x="1338" y="796" type="curve"/>
      <point x="1174" y="796" type="line"/>
      <point x="1174" y="661"/>
      <point x="1169" y="526"/>
      <point x="1160" y="391" type="curve"/>
      <point x="665" y="781" type="line"/>
      <point x="841" y="836"/>
      <point x="1024" y="899"/>
      <point x="1024" y="1115" type="curve" smooth="yes"/>
      <point x="1024" y="1346"/>
      <point x="831" y="1445"/>
      <point x="623" y="1445" type="curve" smooth="yes"/>
      <point x="414" y="1445"/>
      <point x="224" y="1345"/>
      <point x="224" y="1113" type="curve" smooth="yes"/>
      <point x="224" y="1001"/>
      <point x="335" y="879"/>
      <point x="426" y="822" type="curve"/>
      <point x="212" y="761"/>
      <point x="92" y="621"/>
      <point x="92" y="396" type="curve" smooth="yes"/>
      <point x="92" y="75"/>
      <point x="381" y="-39"/>
    </contour>
    <contour>
      <point x="659" y="100" type="curve" smooth="yes"/>
      <point x="426" y="100"/>
      <point x="274" y="161"/>
      <point x="274" y="418" type="curve" smooth="yes"/>
      <point x="274" y="585"/>
      <point x="356" y="691"/>
      <point x="520" y="726" type="curve"/>
      <point x="1108" y="256" type="line"/>
      <point x="1020" y="118"/>
      <point x="805" y="100"/>
    </contour>
    <contour>
      <point x="575" y="883" type="curve"/>
      <point x="495" y="925"/>
      <point x="390" y="1026"/>
      <point x="390" y="1121" type="curve" smooth="yes"/>
      <point x="390" y="1269"/>
      <point x="493" y="1310"/>
      <point x="623" y="1310" type="curve" smooth="yes"/>
      <point x="746" y="1310"/>
      <point x="864" y="1258"/>
      <point x="864" y="1119" type="curve" smooth="yes"/>
      <point x="864" y="953"/>
      <point x="707" y="922"/>
    </contour>
  </outline>
</glyph>
<glyph name="parenleft" format="1">
  <advance width="852"/>
  <unicode hex="0028"/>
  <outline>
    <contour>
      <point x="613" y="-183" type="curve"/>
      <point x="696" y="-78" type="line"/>
      <point x="508" y="101"/>
      <point x="413" y="423"/>
      <point x="413" y="760" type="curve" smooth="yes"/>
      <point x="413" y="1086"/>
      <point x="512" y="1427"/>
      <point x="712" y="1629" type="curve"/>
      <point x="601" y="1728" type="line"/>
      <point x="342" y="1509"/>
      <point x="212" y="1137"/>
      <point x="212" y="760" type="curve" smooth="yes"/>
      <point x="212" y="394"/>
      <point x="345" y="24"/>
    </contour>
  </outline>
</glyph>
<glyph name="asterisk" format="1">
  <advance width="924"/>
  <unicode hex="002A"/>
  <outline>
    <contour>
      <point x="304" y="814" type="line"/>
      <point x="458" y="1095" type="line"/>
      <point x="612" y="814" type="line"/>
      <point x="714" y="868" type="line"/>
      <point x="537" y="1144" type="line"/>
      <point x="843" y="1137" type="line"/>
      <point x="843" y="1241" type="line"/>
      <point x="535" y="1234" type="line"/>
      <point x="700" y="1509" type="line"/>
      <point x="597" y="1561" type="line"/>
      <point x="458" y="1283" type="line"/>
      <point x="319" y="1561" type="line"/>
      <point x="216" y="1509" type="line"/>
      <point x="379" y="1234" type="line"/>
      <point x="73" y="1241" type="line"/>
      <point x="73" y="1137" type="line"/>
      <point x="377" y="1144" type="line"/>
      <point x="202" y="868" type="line"/>
    </contour>
  </outline>
</glyph>
<glyph name="comma" format="1">
  <advance width="720"/>
  <unicode hex="002C"/>
  <outline>
    <contour>
      <point x="267" y="-273" type="line"/>
      <point x="413" y="-231"/>
      <point x="496" y="-110"/>
      <point x="496" y="44" type="curve" smooth="yes"/>
      <point x="496" y="293" type="line"/>
      <point x="235" y="293" type="line"/>
      <point x="235" y="0" type="line"/>
      <point x="346" y="0" type="line"/>
      <point x="347" y="-95"/>
      <point x="311" y="-161"/>
      <point x="226" y="-190" type="curve"/>
    </contour>
  </outline>
</glyph>
<glyph name="hyphen" format="1">
  <advance width="996"/>
  <unicode hex="002D"/>
  <outline>
    <contour>
      <point x="160" y="508" type="line"/>
      <point x="836" y="508" type="line"/>
      <point x="836" y="665" type="line"/>
      <point x="160" y="665" type="line"/>
    </contour>
    <contour>
      <point x="495" y="588" type="move" name="_mid"/>
    </contour>
  </outline>
</glyph>
<glyph name="period" format="1">
  <advance width="660"/>
  <unicode hex="002E"/>
  <outline>
    <contour>
      <point x="327" y="-17" type="curve" smooth="yes"/>
      <point x="392" y="-17"/>
      <point x="435" y="36"/>
      <point x="435" y="98" type="curve" smooth="yes"/>
      <point x="435" y="160"/>
      <point x="392" y="213"/>
      <point x="327" y="213" type="curve" smooth="yes"/>
      <point x="264" y="213"/>
      <point x="215" y="160"/>
      <point x="215" y="98" type="curve" smooth="yes"/>
      <point x="215" y="35"/>
      <point x="263" y="-17"/>
    </contour>
  </outline>
</glyph>
<glyph name="slash" format="1">
  <advance width="934"/>
  <unicode hex="002F"/>
  <outline>
    <contour>
      <point x="228" y="-173" type="line"/>
      <point x="852" y="1675" type="line"/>
      <point x="695" y="1731" type="line"/>
      <point x="70" y="-117" type="line"/>
    </contour>
  </outline>
</glyph>
<glyph name="zero" format="1">
  <advance width="1356"/>
  <unicode hex="0030"/>
  <outline>
    <contour>
      <point x="672" y="124" type="curve" smooth="yes"/>
      <point x="386" y="124"/>
      <point x="291" y="349"/>
      <point x="291" y="592" type="curve" smooth="yes"/>
      <point x="291" y="822"/>
      <point x="382" y="1045"/>
      <point x="672" y="1045" type="curve" smooth="yes"/>
      <point x="953" y="1045"/>
      <point x="1057" y="833"/>
      <point x="1057" y="606" type="curve" smooth="yes"/>
      <point x="1057" y="361"/>
      <point x="972" y="124"/>
    </contour>
    <contour>
      <point x="672" y="-18" type="curve" smooth="yes"/>
      <point x="1042" y="-18"/>
      <point x="1243" y="251"/>
      <point x="1243" y="590" type="curve" smooth="yes"/>
      <point x="1243" y="918"/>
      <point x="1044" y="1186"/>
      <point x="672" y="1186" type="curve" smooth="yes"/>
      <point x="298" y="1186"/>
      <point x="105" y="921"/>
      <point x="105" y="590" type="curve" smooth="yes"/>
      <point x="105" y="257"/>
      <point x="305" y="-18"/>
    </contour>
  </outline>
</glyph>
<glyph name="one" format="1">
  <advance width="828"/>
  <unicode hex="0031"/>
  <outline>
    <contour>
      <point x="440" y="0" type="line"/>
      <point x="627" y="0" type="line"/>
      <point x="627" y="1202" type="line"/>
      <point x="437" y="1202" type="line"/>
      <point x="180" y="1083" type="line"/>
      <point x="233" y="957" type="line"/>
      <point x="440" y="1057" type="line"/>
    </contour>
  </outline>
</glyph>
<glyph name="two" format="1">
  <advance width="1056"/>
  <unicode hex="0032"/>
  <outline>
    <contour>
      <point x="105" y="0" type="line"/>
      <point x="920" y="0" type="line"/>
      <point x="920" y="152" type="line"/>
      <point x="324" y="152" type="line"/>
      <point x="401" y="214.336"/>
      <point x="510" y="289.124"/>
      <point x="614" y="375.075" type="curve" smooth="yes"/>
      <point x="773" y="506.98"/>
      <point x="920" y="665.176"/>
      <point x="920" y="845" type="curve" smooth="yes"/>
      <point x="920" y="1098"/>
      <point x="738" y="1198"/>
      <point x="504" y="1198" type="curve" smooth="yes"/>
      <point x="383" y="1198"/>
      <point x="264" y="1178"/>
      <point x="164" y="1108" type="curve"/>
      <point x="217" y="992" type="line"/>
      <point x="295" y="1030"/>
      <point x="395" y="1059"/>
      <point x="482" y="1059" type="curve" smooth="yes"/>
      <point x="622" y="1059"/>
      <point x="758" y="1007"/>
      <point x="758" y="846" type="curve" smooth="yes"/>
      <point x="758" y="682"/>
      <point x="631" y="577"/>
      <point x="513" y="480" type="curve" smooth="yes"/>
      <point x="105" y="146" type="line"/>
    </contour>
  </outline>
</glyph>
<glyph name="three" format="1">
  <advance width="1176"/>
  <unicode hex="0033"/>
  <outline>
    <contour>
      <point x="552" y="-198" type="curve" smooth="yes"/>
      <point x="773" y="-198"/>
      <point x="1020" y="-88"/>
      <point x="1020" y="166" type="curve" smooth="yes"/>
      <point x="1020" y="377"/>
      <point x="890" y="504"/>
      <point x="692" y="545" type="curve"/>
      <point x="864" y="546"/>
      <point x="981" y="704"/>
      <point x="981" y="866" type="curve" smooth="yes"/>
      <point x="981" y="1121"/>
      <point x="751" y="1206"/>
      <point x="533" y="1206" type="curve" smooth="yes"/>
      <point x="419" y="1206"/>
      <point x="285" y="1172"/>
      <point x="180" y="1125" type="curve"/>
      <point x="230" y="992" type="line"/>
      <point x="323" y="1037"/>
      <point x="423" y="1063"/>
      <point x="527" y="1063" type="curve" smooth="yes"/>
      <point x="682" y="1063"/>
      <point x="816" y="1022"/>
      <point x="816" y="843" type="curve" smooth="yes"/>
      <point x="816" y="664"/>
      <point x="654" y="614"/>
      <point x="504" y="614" type="curve"/>
      <point x="504" y="471" type="line"/>
      <point x="676" y="452"/>
      <point x="840" y="384"/>
      <point x="840" y="186" type="curve" smooth="yes"/>
      <point x="840" y="9"/>
      <point x="720" y="-59"/>
      <point x="556" y="-59" type="curve" smooth="yes"/>
      <point x="442" y="-59"/>
      <point x="302" y="-23"/>
      <point x="201" y="31" type="curve"/>
      <point x="147" y="-102" type="line"/>
      <point x="272" y="-163"/>
      <point x="412" y="-198"/>
    </contour>
  </outline>
</glyph>
<glyph name="four" format="1">
  <advance width="1200"/>
  <unicode hex="0034"/>
  <outline>
    <contour>
      <point x="784" y="-260" type="line"/>
      <point x="955" y="-260" type="line"/>
      <point x="955" y="68" type="line"/>
      <point x="1141" y="68" type="line"/>
      <point x="1141" y="207" type="line"/>
      <point x="955" y="207" type="line"/>
      <point x="955" y="1169" type="line"/>
      <point x="793" y="1208" type="line"/>
      <point x="109" y="205" type="line"/>
      <point x="137" y="68" type="line"/>
      <point x="784" y="68" type="line"/>
    </contour>
    <contour>
      <point x="294" y="205" type="line"/>
      <point x="784" y="930" type="line"/>
      <point x="784" y="205" type="line"/>
    </contour>
  </outline>
</glyph>
<glyph name="five" format="1">
  <advance width="1200"/>
  <unicode hex="0035"/>
  <outline>
    <contour>
      <point x="549" y="-207" type="curve" smooth="yes"/>
      <point x="833" y="-207"/>
      <point x="1040" y="-49"/>
      <point x="1040" y="248" type="curve" smooth="yes"/>
      <point x="1040" y="518"/>
      <point x="858" y="698"/>
      <point x="589" y="698" type="curve" smooth="yes"/>
      <point x="519" y="698"/>
      <point x="400" y="679"/>
      <point x="349" y="622" type="curve"/>
      <point x="349" y="1018" type="line"/>
      <point x="952" y="1018" type="line"/>
      <point x="952" y="1169" type="line"/>
      <point x="204" y="1169" type="line"/>
      <point x="204" y="537" type="line"/>
      <point x="272" y="468" type="line"/>
      <point x="358" y="510"/>
      <point x="473" y="562"/>
      <point x="571" y="562" type="curve" smooth="yes"/>
      <point x="770" y="562"/>
      <point x="868" y="435"/>
      <point x="868" y="244" type="curve" smooth="yes"/>
      <point x="868" y="36"/>
      <point x="752" y="-56"/>
      <point x="551" y="-56" type="curve" smooth="yes"/>
      <point x="441" y="-56"/>
      <point x="317" y="-19"/>
      <point x="219" y="31" type="curve"/>
      <point x="168" y="-114" type="line"/>
      <point x="296" y="-165"/>
      <point x="407" y="-207"/>
    </contour>
  </outline>
</glyph>
<glyph name="six" format="1">
  <advance width="1308"/>
  <unicode hex="0036"/>
  <outline>
    <contour>
      <point x="652" y="-156" type="curve" smooth="yes"/>
      <point x="947" y="-156"/>
      <point x="1152" y="38"/>
      <point x="1152" y="335" type="curve" smooth="yes"/>
      <point x="1152" y="612"/>
      <point x="961" y="793"/>
      <point x="686" y="793" type="curve" smooth="yes"/>
      <point x="555" y="793"/>
      <point x="431" y="752"/>
      <point x="345" y="649" type="curve"/>
      <point x="397" y="931"/>
      <point x="635" y="1117"/>
      <point x="905" y="1174" type="curve"/>
      <point x="862" y="1319" type="line"/>
      <point x="424" y="1216"/>
      <point x="147" y="878"/>
      <point x="147" y="425" type="curve" smooth="yes"/>
      <point x="147" y="99"/>
      <point x="299" y="-156"/>
    </contour>
    <contour>
      <point x="652" y="-14" type="curve" smooth="yes"/>
      <point x="402" y="-14"/>
      <point x="325" y="184"/>
      <point x="325" y="401" type="curve" smooth="yes"/>
      <point x="325" y="442"/>
      <point x="325" y="483"/>
      <point x="331" y="523" type="curve"/>
      <point x="400" y="600"/>
      <point x="586" y="657"/>
      <point x="686" y="657" type="curve" smooth="yes"/>
      <point x="877" y="657"/>
      <point x="976" y="516"/>
      <point x="976" y="335" type="curve" smooth="yes"/>
      <point x="976" y="138"/>
      <point x="859" y="-14"/>
    </contour>
  </outline>
</glyph>
<glyph name="seven" format="1">
  <advance width="1152"/>
  <unicode hex="0037"/>
  <outline>
    <contour>
      <point x="455" y="-176" type="line"/>
      <point x="1027" y="1107" type="line"/>
      <point x="970" y="1229" type="line"/>
      <point x="134" y="1229" type="line"/>
      <point x="134" y="1074" type="line"/>
      <point x="812" y="1074" type="line"/>
      <point x="287" y="-100" type="line"/>
    </contour>
  </outline>
</glyph>
<glyph name="nine" format="1">
  <advance width="1308"/>
  <unicode hex="0039"/>
  <outline>
    <contour>
      <point x="444" y="-289" type="line"/>
      <point x="882" y="-187"/>
      <point x="1159" y="152"/>
      <point x="1159" y="605" type="curve" smooth="yes"/>
      <point x="1159" y="931"/>
      <point x="1007" y="1186"/>
      <point x="654" y="1186" type="curve" smooth="yes"/>
      <point x="359" y="1186"/>
      <point x="154" y="992"/>
      <point x="154" y="695" type="curve" smooth="yes"/>
      <point x="154" y="416"/>
      <point x="344" y="237"/>
      <point x="620" y="237" type="curve" smooth="yes"/>
      <point x="751" y="237"/>
      <point x="875" y="278"/>
      <point x="961" y="381" type="curve"/>
      <point x="909" y="101"/>
      <point x="671" y="-89"/>
      <point x="401" y="-144" type="curve"/>
    </contour>
    <contour>
      <point x="620" y="373" type="curve" smooth="yes"/>
      <point x="429" y="373"/>
      <point x="330" y="514"/>
      <point x="330" y="695" type="curve" smooth="yes"/>
      <point x="330" y="892"/>
      <point x="447" y="1044"/>
      <point x="654" y="1044" type="curve" smooth="yes"/>
      <point x="904" y="1044"/>
      <point x="981" y="846"/>
      <point x="981" y="629" type="curve" smooth="yes"/>
      <point x="981" y="588"/>
      <point x="981" y="547"/>
      <point x="975" y="507" type="curve"/>
      <point x="908" y="428"/>
      <point x="719" y="373"/>
    </contour>
  </outline>
</glyph>
<glyph name="semicolon" format="1">
  <advance width="720"/>
  <unicode hex="003B"/>
  <outline>
    <contour>
      <point x="267" y="-253" type="line"/>
      <point x="413" y="-211"/>
      <point x="496" y="-110"/>
      <point x="496" y="44" type="curve" smooth="yes"/>
      <point x="496" y="293" type="line"/>
      <point x="215" y="293" type="line"/>
      <point x="215" y="0" type="line"/>
      <point x="346" y="0" type="line"/>
      <point x="347" y="-95"/>
      <point x="301" y="-130"/>
      <point x="216" y="-159" type="curve"/>
    </contour>
    <contour>
      <point x="216" y="583" type="line"/>
      <point x="496" y="583" type="line"/>
      <point x="496" y="864" type="line"/>
      <point x="216" y="864" type="line"/>
    </contour>
  </outline>
</glyph>
<glyph name="equal" format="1">
  <advance width="936"/>
  <unicode hex="003D"/>
  <outline>
    <contour>
      <point x="133" y="330" type="line"/>
      <point x="801" y="330" type="line"/>
      <point x="801" y="461" type="line"/>
      <point x="133" y="461" type="line"/>
    </contour>
    <contour>
      <point x="133" y="618" type="line"/>
      <point x="801" y="618" type="line"/>
      <point x="801" y="749" type="line"/>
      <point x="133" y="749" type="line"/>
    </contour>
  </outline>
</glyph>
<glyph name="at" format="1">
  <advance width="1995"/>
  <unicode hex="0040"/>
  <outline>
    <contour>
      <point x="995" y="-127" type="curve" smooth="yes"/>
      <point x="1159" y="-127"/>
      <point x="1343" y="-96"/>
      <point x="1471" y="-46" type="curve"/>
      <point x="1431" y="73" type="line"/>
      <point x="1312" y="22"/>
      <point x="1144" y="-10"/>
      <point x="995" y="-10" type="curve" smooth="yes"/>
      <point x="544" y="-10"/>
      <point x="267" y="261"/>
      <point x="276" y="692" type="curve" smooth="yes"/>
      <point x="286" y="1176"/>
      <point x="591" y="1480"/>
      <point x="1068" y="1480" type="curve" smooth="yes"/>
      <point x="1495" y="1480"/>
      <point x="1763" y="1237"/>
      <point x="1763" y="850" type="curve" smooth="yes"/>
      <point x="1763" y="556"/>
      <point x="1669" y="372"/>
      <point x="1520" y="372" type="curve" smooth="yes"/>
      <point x="1474" y="372"/>
      <point x="1449" y="407"/>
      <point x="1454" y="464" type="curve" smooth="yes"/>
      <point x="1507" y="1072" type="line" smooth="yes"/>
      <point x="1516" y="1176"/>
      <point x="1382" y="1241"/>
      <point x="1160" y="1241" type="curve" smooth="yes"/>
      <point x="768" y="1241"/>
      <point x="522" y="996"/>
      <point x="522" y="606" type="curve" smooth="yes"/>
      <point x="522" y="391"/>
      <point x="655" y="256"/>
      <point x="868" y="256" type="curve" smooth="yes"/>
      <point x="1092" y="256"/>
      <point x="1276" y="424"/>
      <point x="1344" y="692" type="curve"/>
      <point x="1360" y="690" type="line"/>
      <point x="1360" y="638"/>
      <point x="1344" y="516"/>
      <point x="1344" y="433" type="curve" smooth="yes"/>
      <point x="1344" y="333"/>
      <point x="1404" y="271"/>
      <point x="1500" y="271" type="curve" smooth="yes"/>
      <point x="1741" y="271"/>
      <point x="1893" y="494"/>
      <point x="1893" y="850" type="curve" smooth="yes"/>
      <point x="1893" y="1308"/>
      <point x="1575" y="1596"/>
      <point x="1068" y="1596" type="curve" smooth="yes"/>
      <point x="492" y="1596"/>
      <point x="130" y="1238"/>
      <point x="130" y="668" type="curve" smooth="yes"/>
      <point x="130" y="180"/>
      <point x="464" y="-127"/>
    </contour>
    <contour>
      <point x="895" y="367" type="curve" smooth="yes"/>
      <point x="751" y="366"/>
      <point x="661" y="464"/>
      <point x="661" y="622" type="curve" smooth="yes"/>
      <point x="661" y="942"/>
      <point x="853" y="1144"/>
      <point x="1159" y="1146" type="curve" smooth="yes"/>
      <point x="1222" y="1146"/>
      <point x="1311" y="1129"/>
      <point x="1389" y="1102" type="curve"/>
      <point x="1343" y="652"/>
      <point x="1152" y="368"/>
    </contour>
  </outline>
</glyph>
<glyph name="B" format="1">
  <advance width="1452"/>
  <unicode hex="0042"/>
  <outline>
    <contour>
      <point x="194" y="0" type="line"/>
      <point x="634" y="0" type="line"/>
      <point x="935" y="0"/>
      <point x="1314" y="46"/>
      <point x="1314" y="434" type="curve" smooth="yes"/>
      <point x="1314" y="699"/>
      <point x="1174" y="819"/>
      <point x="948" y="858" type="curve"/>
      <point x="1130" y="898"/>
      <point x="1232" y="976"/>
      <point x="1232" y="1188" type="curve" smooth="yes"/>
      <point x="1232" y="1570"/>
      <point x="874" y="1579"/>
      <point x="575" y="1579" type="curve" smooth="yes"/>
      <point x="194" y="1579" type="line"/>
    </contour>
    <contour>
      <point x="388" y="143" type="line"/>
      <point x="388" y="784" type="line"/>
      <point x="651" y="784" type="line" smooth="yes"/>
      <point x="889" y="784"/>
      <point x="1132" y="759"/>
      <point x="1132" y="466" type="curve" smooth="yes"/>
      <point x="1132" y="152"/>
      <point x="883" y="143"/>
      <point x="634" y="143" type="curve" smooth="yes"/>
    </contour>
    <contour>
      <point x="388" y="913" type="line"/>
      <point x="388" y="1436" type="line"/>
      <point x="579" y="1436" type="line" smooth="yes"/>
      <point x="769" y="1436"/>
      <point x="1067" y="1450"/>
      <point x="1067" y="1188" type="curve" smooth="yes"/>
      <point x="1067" y="935"/>
      <point x="854" y="913"/>
      <point x="647" y="913" type="curve" smooth="yes"/>
    </contour>
    <contour>
      <point x="704" y="1578" type="move" name="top"/>
    </contour>
  </outline>
</glyph>
<glyph name="C" format="1">
  <advance width="1392"/>
  <unicode hex="0043"/>
  <outline>
    <contour>
      <point x="838" y="-18" type="curve" smooth="yes"/>
      <point x="1006" y="-18"/>
      <point x="1148" y="36"/>
      <point x="1271" y="110" type="curve"/>
      <point x="1208" y="241" type="line"/>
      <point x="1108" y="183"/>
      <point x="977" y="134"/>
      <point x="846" y="134" type="curve" smooth="yes"/>
      <point x="452" y="134"/>
      <point x="348" y="452"/>
      <point x="348" y="784" type="curve" smooth="yes"/>
      <point x="348" y="1119"/>
      <point x="463" y="1444"/>
      <point x="854" y="1444" type="curve" smooth="yes"/>
      <point x="984" y="1444"/>
      <point x="1108" y="1394"/>
      <point x="1182" y="1352" type="curve"/>
      <point x="1242" y="1482" type="line"/>
      <point x="1157" y="1535"/>
      <point x="1026" y="1596"/>
      <point x="854" y="1596" type="curve" smooth="yes"/>
      <point x="358" y="1596"/>
      <point x="154" y="1252"/>
      <point x="154" y="788" type="curve" smooth="yes"/>
      <point x="154" y="348"/>
      <point x="334" y="-18"/>
    </contour>
    <contour>
      <point x="852" y="1578" type="move" name="top"/>
    </contour>
    <contour>
      <point x="837" y="0" type="move" name="bot"/>
    </contour>
  </outline>
</glyph>
<glyph name="D" format="1">
  <advance width="1547"/>
  <unicode hex="0044"/>
  <outline>
    <contour>
      <point x="388" y="143" type="line"/>
      <point x="388" y="1436" type="line"/>
      <point x="727" y="1436" type="line" smooth="yes"/>
      <point x="1116" y="1436"/>
      <point x="1206" y="1111"/>
      <point x="1206" y="789" type="curve" smooth="yes"/>
      <point x="1206" y="465"/>
      <point x="1120" y="143"/>
      <point x="727" y="143" type="curve" smooth="yes"/>
    </contour>
    <contour>
      <point x="194" y="0" type="line"/>
      <point x="727" y="0" type="line" smooth="yes"/>
      <point x="1223" y="0"/>
      <point x="1400" y="338"/>
      <point x="1400" y="788" type="curve" smooth="yes"/>
      <point x="1400" y="1238"/>
      <point x="1224" y="1579"/>
      <point x="727" y="1579" type="curve" smooth="yes"/>
      <point x="194" y="1579" type="line"/>
    </contour>
    <contour>
      <point x="737" y="1578" type="move" name="top"/>
    </contour>
    <contour>
      <point x="298" y="843" type="move" name="mid"/>
    </contour>
    <contour>
      <point x="722" y="0" type="move" name="bot"/>
    </contour>
  </outline>
</glyph>
<glyph name="E" format="1">
  <advance width="1284"/>
  <unicode hex="0045"/>
  <outline>
    <contour>
      <point x="189" y="0" type="line"/>
      <point x="1134" y="0" type="line"/>
      <point x="1134" y="143" type="line"/>
      <point x="383" y="143" type="line"/>
      <point x="383" y="768" type="line"/>
      <point x="1036" y="768" type="line"/>
      <point x="1036" y="894" type="line"/>
      <point x="383" y="894" type="line"/>
      <point x="383" y="1435" type="line"/>
      <point x="1147" y="1435" type="line"/>
      <point x="1147" y="1578" type="line"/>
      <point x="189" y="1579" type="line"/>
    </contour>
    <contour>
      <point x="732" y="1578" type="move" name="top"/>
    </contour>
    <contour>
      <point x="747" y="0" type="move" name="bot"/>
    </contour>
  </outline>
</glyph>
<glyph name="F" format="1">
  <advance width="1236"/>
  <unicode hex="0046"/>
  <outline>
    <contour>
      <point x="196" y="0" type="line"/>
      <point x="392" y="0" type="line"/>
      <point x="392" y="762" type="line"/>
      <point x="1047" y="762" type="line"/>
      <point x="1047" y="879" type="line"/>
      <point x="392" y="879" type="line"/>
      <point x="392" y="1436" type="line"/>
      <point x="1108" y="1436" type="line"/>
      <point x="1108" y="1579" type="line"/>
      <point x="196" y="1579" type="line"/>
    </contour>
    <contour>
      <point x="702" y="1578" type="move" name="top"/>
    </contour>
    <contour>
      <point x="687" y="0" type="move" name="bot"/>
    </contour>
  </outline>
</glyph>
<glyph name="G" format="1">
  <advance width="1572"/>
  <unicode hex="0047"/>
  <outline>
    <contour>
      <point x="778" y="-18" type="curve" smooth="yes"/>
      <point x="958" y="-18"/>
      <point x="1195" y="33"/>
      <point x="1245" y="213" type="curve"/>
      <point x="1298" y="0" type="line"/>
      <point x="1386" y="0" type="line"/>
      <point x="1386" y="811" type="line"/>
      <point x="799" y="811" type="line"/>
      <point x="799" y="684" type="line"/>
      <point x="1201" y="684" type="line"/>
      <point x="1201" y="399" type="line" smooth="yes"/>
      <point x="1201" y="206"/>
      <point x="1011" y="134"/>
      <point x="825" y="134" type="curve" smooth="yes"/>
      <point x="420" y="134"/>
      <point x="341" y="449"/>
      <point x="341" y="782" type="curve" smooth="yes"/>
      <point x="341" y="1112"/>
      <point x="437" y="1444"/>
      <point x="840" y="1444" type="curve" smooth="yes"/>
      <point x="959" y="1444"/>
      <point x="1112" y="1408"/>
      <point x="1206" y="1343" type="curve"/>
      <point x="1273" y="1476" type="line"/>
      <point x="1137" y="1548"/>
      <point x="1006" y="1596"/>
      <point x="842" y="1596" type="curve" smooth="yes"/>
      <point x="343" y="1596"/>
      <point x="147" y="1243"/>
      <point x="147" y="786" type="curve" smooth="yes"/>
      <point x="147" y="388"/>
      <point x="317" y="-18"/>
    </contour>
    <contour>
      <point x="832" y="1578" type="move" name="top"/>
    </contour>
    <contour>
      <point x="817" y="0" type="move" name="bot"/>
    </contour>
  </outline>
</glyph>
<glyph name="H" format="1">
  <advance width="1608"/>
  <unicode hex="0048"/>
  <outline>
    <contour>
      <point x="194" y="0" type="line"/>
      <point x="388" y="0" type="line"/>
      <point x="388" y="751" type="line"/>
      <point x="1220" y="751" type="line"/>
      <point x="1220" y="0" type="line"/>
      <point x="1414" y="0" type="line"/>
      <point x="1414" y="1579" type="line"/>
      <point x="1220" y="1579" type="line"/>
      <point x="1220" y="894" type="line"/>
      <point x="388" y="894" type="line"/>
      <point x="388" y="1579" type="line"/>
      <point x="194" y="1579" type="line"/>
    </contour>
    <contour>
      <point x="804" y="1578" type="move" name="top"/>
    </contour>
    <contour>
      <point x="789" y="0" type="move" name="bot"/>
    </contour>
  </outline>
</glyph>
<glyph name="K" format="1">
  <advance width="1356"/>
  <unicode hex="004B"/>
  <outline>
    <contour>
      <point x="182" y="0" type="line"/>
      <point x="376" y="0" type="line"/>
      <point x="376" y="747" type="line"/>
      <point x="419" y="747" type="line"/>
      <point x="1097" y="0" type="line"/>
      <point x="1330" y="0" type="line"/>
      <point x="588" y="815" type="line"/>
      <point x="1282" y="1579" type="line"/>
      <point x="1071" y="1579" type="line"/>
      <point x="409" y="876" type="line"/>
      <point x="376" y="876" type="line"/>
      <point x="376" y="1579" type="line"/>
      <point x="182" y="1579" type="line"/>
    </contour>
    <contour>
      <point x="712" y="1578" type="move" name="top"/>
    </contour>
    <contour>
      <point x="697" y="0" type="move" name="bot"/>
    </contour>
  </outline>
</glyph>
<glyph name="L" format="1">
  <advance width="1212"/>
  <unicode hex="004C"/>
  <outline>
    <contour>
      <point x="196" y="0" type="line"/>
      <point x="1136" y="0" type="line"/>
      <point x="1136" y="143" type="line"/>
      <point x="390" y="143" type="line"/>
      <point x="390" y="1579" type="line"/>
      <point x="196" y="1579" type="line"/>
    </contour>
    <contour>
      <point x="322" y="1578" type="move" name="top"/>
    </contour>
    <contour>
      <point x="306" y="885" type="move" name="mid"/>
    </contour>
    <contour>
      <point x="697" y="0" type="move" name="bot"/>
    </contour>
  </outline>
</glyph>
<glyph name="M" format="1">
  <advance width="1920"/>
  <unicode hex="004D"/>
  <outline>
    <contour>
      <point x="189" y="0" type="line"/>
      <point x="363" y="0" type="line"/>
      <point x="363" y="1399" type="line"/>
      <point x="867" y="112" type="line"/>
      <point x="1033" y="112" type="line"/>
      <point x="1548" y="1399" type="line"/>
      <point x="1548" y="0" type="line"/>
      <point x="1721" y="0" type="line"/>
      <point x="1721" y="1579" type="line"/>
      <point x="1440" y="1579" type="line"/>
      <point x="955" y="320" type="line"/>
      <point x="470" y="1579" type="line"/>
      <point x="189" y="1579" type="line"/>
    </contour>
    <contour>
      <point x="962" y="1578" type="move" name="top"/>
    </contour>
    <contour>
      <point x="947" y="0" type="move" name="bot"/>
    </contour>
  </outline>
</glyph>
<glyph name="N" format="1">
  <advance width="1656"/>
  <unicode hex="004E"/>
  <outline>
    <contour>
      <point x="209" y="0" type="line"/>
      <point x="381" y="0" type="line"/>
      <point x="381" y="1404" type="line"/>
      <point x="1200" y="0" type="line"/>
      <point x="1462" y="0" type="line"/>
      <point x="1462" y="1579" type="line"/>
      <point x="1290" y="1579" type="line"/>
      <point x="1290" y="175" type="line"/>
      <point x="471" y="1579" type="line"/>
      <point x="209" y="1579" type="line"/>
    </contour>
    <contour>
      <point x="852" y="1578" type="move" name="top"/>
    </contour>
    <contour>
      <point x="837" y="0" type="move" name="bot"/>
    </contour>
  </outline>
</glyph>
<glyph name="O" format="1">
  <advance width="1604"/>
  <unicode hex="004F"/>
  <outline>
    <contour>
      <point x="801" y="134" type="curve" smooth="yes"/>
      <point x="418" y="134"/>
      <point x="341" y="464"/>
      <point x="341" y="784" type="curve" smooth="yes"/>
      <point x="341" y="1101"/>
      <point x="418" y="1444"/>
      <point x="801" y="1444" type="curve" smooth="yes"/>
      <point x="1185" y="1444"/>
      <point x="1263" y="1103"/>
      <point x="1263" y="784" type="curve" smooth="yes"/>
      <point x="1263" y="464"/>
      <point x="1182" y="134"/>
    </contour>
    <contour>
      <point x="801" y="-18" type="curve" smooth="yes"/>
      <point x="1281" y="-18"/>
      <point x="1457" y="342"/>
      <point x="1457" y="784" type="curve" smooth="yes"/>
      <point x="1457" y="1236"/>
      <point x="1285" y="1596"/>
      <point x="801" y="1596" type="curve" smooth="yes"/>
      <point x="326" y="1596"/>
      <point x="147" y="1214"/>
      <point x="147" y="784" type="curve" smooth="yes"/>
      <point x="147" y="342"/>
      <point x="323" y="-18"/>
    </contour>
    <contour>
      <point x="802" y="1578" type="move" name="top"/>
    </contour>
    <contour>
      <point x="867" y="0" type="move" name="ogonek"/>
    </contour>
  </outline>
</glyph>
<glyph name="P" format="1">
  <advance width="1440"/>
  <unicode hex="0050"/>
  <outline>
    <contour>
      <point x="189" y="0" type="line"/>
      <point x="383" y="0" type="line"/>
      <point x="383" y="639" type="line"/>
      <point x="398.327" y="639"/>
      <point x="413.992" y="638.951"/>
      <point x="429.937" y="638.895" type="curve" smooth="yes"/>
      <point x="787.46" y="637.648"/>
      <point x="1286" y="633.176"/>
      <point x="1286" y="1108" type="curve" smooth="yes"/>
      <point x="1286" y="1536"/>
      <point x="940" y="1579"/>
      <point x="586" y="1579" type="curve" smooth="yes"/>
      <point x="189" y="1579" type="line"/>
    </contour>
    <contour>
      <point x="383" y="784" type="line"/>
      <point x="383" y="1436" type="line"/>
      <point x="598" y="1436" type="line" smooth="yes"/>
      <point x="897" y="1436"/>
      <point x="1104" y="1422"/>
      <point x="1104" y="1084" type="curve" smooth="yes"/>
      <point x="1104" y="790"/>
      <point x="774" y="784"/>
      <point x="553" y="784" type="curve" smooth="yes"/>
    </contour>
    <contour>
      <point x="712" y="1578" type="move" name="top"/>
    </contour>
    <contour>
      <point x="697" y="0" type="move" name="bot"/>
    </contour>
  </outline>
</glyph>
<glyph name="Q" format="1">
  <advance width="1620"/>
  <unicode hex="0051"/>
  <outline>
    <contour>
      <point x="1077" y="-426" type="line"/>
      <point x="1193" y="-352" type="line"/>
      <point x="938.719" y="-7.02597" type="line"/>
      <point x="1315.12" y="56.4061"/>
      <point x="1457" y="387.152"/>
      <point x="1457" y="784" type="curve" smooth="yes"/>
      <point x="1457" y="1236"/>
      <point x="1285" y="1596"/>
      <point x="801" y="1596" type="curve" smooth="yes"/>
      <point x="326" y="1596"/>
      <point x="147" y="1214"/>
      <point x="147" y="784" type="curve" smooth="yes"/>
      <point x="147" y="352.55"/>
      <point x="314.699" y="-0.767975"/>
      <point x="767.288" y="-17.3882" type="curve"/>
    </contour>
    <contour>
      <point x="801" y="134" type="curve" smooth="yes"/>
      <point x="418" y="134"/>
      <point x="341" y="464"/>
      <point x="341" y="784" type="curve" smooth="yes"/>
      <point x="341" y="1101"/>
      <point x="418" y="1444"/>
      <point x="801" y="1444" type="curve" smooth="yes"/>
      <point x="1185" y="1444"/>
      <point x="1263" y="1103"/>
      <point x="1263" y="784" type="curve" smooth="yes"/>
      <point x="1263" y="464"/>
      <point x="1182" y="134"/>
    </contour>
    <contour>
      <point x="802" y="1578" type="move" name="top"/>
    </contour>
    <contour>
      <point x="787" y="0" type="move" name="bot"/>
    </contour>
  </outline>
</glyph>
<glyph name="R" format="1">
  <advance width="1499"/>
  <unicode hex="0052"/>
  <outline>
    <contour>
      <point x="194" y="0" type="line"/>
      <point x="388" y="0" type="line"/>
      <point x="388" y="733" type="line"/>
      <point x="702" y="733" type="line" smooth="yes"/>
      <point x="1044" y="733"/>
      <point x="1094" y="683"/>
      <point x="1124" y="411" type="curve" smooth="yes"/>
      <point x="1169" y="0" type="line"/>
      <point x="1343" y="0" type="line"/>
      <point x="1302" y="435" type="line" smooth="yes"/>
      <point x="1279" y="683"/>
      <point x="1206" y="796"/>
      <point x="1016" y="809" type="curve"/>
      <point x="1201" y="838"/>
      <point x="1310" y="968"/>
      <point x="1310" y="1160" type="curve" smooth="yes"/>
      <point x="1310" y="1579"/>
      <point x="967" y="1579"/>
      <point x="597" y="1579" type="curve" smooth="yes"/>
      <point x="194" y="1579" type="line"/>
    </contour>
    <contour>
      <point x="388" y="862" type="line"/>
      <point x="388" y="1436" type="line"/>
      <point x="597" y="1436" type="line" smooth="yes"/>
      <point x="871" y="1436"/>
      <point x="1140" y="1465"/>
      <point x="1140" y="1150" type="curve" smooth="yes"/>
      <point x="1140" y="885"/>
      <point x="896" y="862"/>
      <point x="696" y="862" type="curve" smooth="yes"/>
    </contour>
    <contour>
      <point x="727" y="1578" type="move" name="top"/>
    </contour>
    <contour>
      <point x="762" y="0" type="move" name="bot"/>
    </contour>
  </outline>
</glyph>
<glyph name="S" format="1">
  <advance width="1332"/>
  <unicode hex="0053"/>
  <outline>
    <contour>
      <point x="640" y="-18" type="curve" smooth="yes"/>
      <point x="957" y="-18"/>
      <point x="1181" y="105"/>
      <point x="1181" y="414" type="curve" smooth="yes"/>
      <point x="1181" y="718"/>
      <point x="1017" y="793"/>
      <point x="772" y="883" type="curve" smooth="yes"/>
      <point x="566" y="959" type="line" smooth="yes"/>
      <point x="406" y="1018"/>
      <point x="308" y="1060"/>
      <point x="308" y="1210" type="curve" smooth="yes"/>
      <point x="308" y="1395"/>
      <point x="491" y="1444"/>
      <point x="663" y="1444" type="curve" smooth="yes"/>
      <point x="795" y="1444"/>
      <point x="940" y="1392"/>
      <point x="1028" y="1336" type="curve"/>
      <point x="1095" y="1473" type="line"/>
      <point x="957" y="1562"/>
      <point x="793" y="1596"/>
      <point x="624" y="1596" type="curve" smooth="yes"/>
      <point x="366" y="1596"/>
      <point x="127" y="1466"/>
      <point x="127" y="1192" type="curve" smooth="yes"/>
      <point x="127" y="941"/>
      <point x="288" y="863"/>
      <point x="485" y="798" type="curve" smooth="yes"/>
      <point x="708" y="724" type="line" smooth="yes"/>
      <point x="882" y="666"/>
      <point x="1003" y="591"/>
      <point x="1003" y="416" type="curve" smooth="yes"/>
      <point x="1003" y="195"/>
      <point x="856" y="134"/>
      <point x="647" y="134" type="curve" smooth="yes"/>
      <point x="446" y="134"/>
      <point x="255" y="230"/>
      <point x="199" y="268" type="curve"/>
      <point x="134" y="122" type="line"/>
      <point x="255" y="47"/>
      <point x="498" y="-18"/>
    </contour>
    <contour>
      <point x="652" y="1578" type="move" name="top"/>
    </contour>
    <contour>
      <point x="637" y="0" type="move" name="bot"/>
    </contour>
  </outline>
</glyph>
<glyph name="U" format="1">
  <advance width="1572"/>
  <unicode hex="0055"/>
  <outline>
    <contour>
      <point x="784" y="-18" type="curve" smooth="yes"/>
      <point x="1274" y="-18"/>
      <point x="1402" y="268"/>
      <point x="1402" y="724" type="curve" smooth="yes"/>
      <point x="1402" y="1579" type="line"/>
      <point x="1206" y="1579" type="line"/>
      <point x="1206" y="720" type="line" smooth="yes"/>
      <point x="1206" y="384"/>
      <point x="1175" y="123"/>
      <point x="784" y="123" type="curve" smooth="yes"/>
      <point x="395" y="123"/>
      <point x="360" y="382"/>
      <point x="360" y="720" type="curve" smooth="yes"/>
      <point x="360" y="1579" type="line"/>
      <point x="168" y="1579" type="line"/>
      <point x="168" y="724" type="line" smooth="yes"/>
      <point x="168" y="267"/>
      <point x="298" y="-18"/>
    </contour>
    <contour>
      <point x="802" y="1578" type="move" name="top"/>
    </contour>
    <contour>
      <point x="787" y="0" type="move" name="bot"/>
    </contour>
    <contour>
      <point x="887" y="0" type="move" name="ogonek"/>
    </contour>
  </outline>
</glyph>
<glyph name="V" format="1">
  <advance width="1248"/>
  <unicode hex="0056"/>
  <outline>
    <contour>
      <point x="499" y="0" type="line"/>
      <point x="743" y="0" type="line"/>
      <point x="1237" y="1579" type="line"/>
      <point x="1048" y="1579" type="line"/>
      <point x="621" y="140" type="line"/>
      <point x="194" y="1579" type="line"/>
      <point x="3" y="1579" type="line"/>
    </contour>
  </outline>
</glyph>
<glyph name="W" format="1">
  <advance width="1848"/>
  <unicode hex="0057"/>
  <outline>
    <contour>
      <point x="340" y="0" type="line"/>
      <point x="607" y="0" type="line"/>
      <point x="928" y="1333" type="line"/>
      <point x="1235" y="0" type="line"/>
      <point x="1501" y="0" type="line"/>
      <point x="1897" y="1579" type="line"/>
      <point x="1717" y="1579" type="line"/>
      <point x="1367" y="175" type="line"/>
      <point x="1065" y="1489" type="line"/>
      <point x="791" y="1489" type="line"/>
      <point x="475" y="175" type="line"/>
      <point x="125" y="1579" type="line"/>
      <point x="-51" y="1579" type="line"/>
    </contour>
    <contour>
      <point x="932" y="1578" type="move" name="top"/>
    </contour>
    <contour>
      <point x="917" y="0" type="move" name="bot"/>
    </contour>
  </outline>
</glyph>
<glyph name="X" format="1">
  <advance width="1308"/>
  <unicode hex="0058"/>
  <outline>
    <contour>
      <point x="34" y="0" type="line"/>
      <point x="252" y="0" type="line"/>
      <point x="651" y="659" type="line"/>
      <point x="1068" y="0" type="line"/>
      <point x="1266" y="0" type="line"/>
      <point x="749" y="801" type="line"/>
      <point x="1254" y="1579" type="line"/>
      <point x="1058" y="1579" type="line"/>
      <point x="644" y="945" type="line"/>
      <point x="244" y="1579" type="line"/>
      <point x="46" y="1579" type="line"/>
      <point x="538" y="804" type="line"/>
    </contour>
  </outline>
</glyph>
<glyph name="Y" format="1">
  <advance width="1241"/>
  <unicode hex="0059"/>
  <outline>
    <contour>
      <point x="523" y="0" type="line"/>
      <point x="713" y="0" type="line"/>
      <point x="713" y="629" type="line"/>
      <point x="1227" y="1579" type="line"/>
      <point x="1036" y="1579" type="line"/>
      <point x="618" y="820" type="line"/>
      <point x="206" y="1579" type="line"/>
      <point x="14" y="1579" type="line"/>
      <point x="523" y="629" type="line"/>
    </contour>
    <contour>
      <point x="640" y="1578" type="move" name="top"/>
    </contour>
    <contour>
      <point x="625" y="0" type="move" name="bot"/>
    </contour>
  </outline>
</glyph>
<glyph name="Z" format="1">
  <advance width="1175"/>
  <unicode hex="005A"/>
  <outline>
    <contour>
      <point x="117" y="0" type="line"/>
      <point x="1097" y="0" type="line"/>
      <point x="1097" y="143" type="line"/>
      <point x="323" y="143" type="line"/>
      <point x="1105" y="1449" type="line"/>
      <point x="1105" y="1579" type="line"/>
      <point x="146" y="1579" type="line"/>
      <point x="146" y="1447" type="line"/>
      <point x="898" y="1447" type="line"/>
      <point x="117" y="140" type="line"/>
    </contour>
    <contour>
      <point x="651" y="1578" type="move" name="top"/>
    </contour>
    <contour>
      <point x="636" y="0" type="move" name="bot"/>
    </contour>
  </outline>
</glyph>
<glyph name="asciicircum" format="1">
  <advance width="936"/>
  <unicode hex="005E"/>
  <outline>
    <contour>
      <point x="125" y="510" type="line"/>
      <point x="253" y="432" type="line"/>
      <point x="465" y="809" type="line"/>
      <point x="677" y="432" type="line"/>
      <point x="805" y="510" type="line"/>
      <point x="513" y="1011" type="line"/>
      <point x="417" y="1011" type="line"/>
    </contour>
  </outline>
</glyph>
<glyph name="underscore" format="1">
  <advance width="1176"/>
  <unicode hex="005F"/>
  <outline>
    <contour>
      <point x="118" y="-111" type="line"/>
      <point x="1058" y="-111" type="line"/>
      <point x="1058" y="33" type="line"/>
      <point x="118" y="33" type="line"/>
    </contour>
  </outline>
</glyph>
<glyph name="grave" format="1">
  <advance width="804"/>
  <unicode hex="0060"/>
  <outline>
    <contour>
      <point x="574" y="1373" type="line"/>
      <point x="613" y="1421" type="line"/>
      <point x="199" y="1833" type="line"/>
      <point x="68" y="1696" type="line"/>
    </contour>
    <contour>
      <point x="578" y="1168" type="move" name="_top"/>
    </contour>
  </outline>
</glyph>
<glyph name="a" format="1">
  <advance width="1221"/>
  <unicode hex="0061"/>
  <outline>
    <contour>
      <point x="492" y="-18" type="curve" smooth="yes"/>
      <point x="659" y="-18"/>
      <point x="789" y="44"/>
      <point x="887" y="178" type="curve"/>
      <point x="915" y="0" type="line"/>
      <point x="1055" y="0" type="line"/>
      <point x="1055" y="686" type="line" smooth="yes"/>
      <point x="1055" y="1039"/>
      <point x="960" y="1186"/>
      <point x="589" y="1186" type="curve" smooth="yes"/>
      <point x="382" y="1186"/>
      <point x="236" y="1129"/>
      <point x="160" y="1093" type="curve"/>
      <point x="211" y="964" type="line"/>
      <point x="276" y="994"/>
      <point x="404" y="1044"/>
      <point x="602" y="1044" type="curve" smooth="yes"/>
      <point x="846" y="1044"/>
      <point x="865" y="921"/>
      <point x="865" y="713" type="curve" smooth="yes"/>
      <point x="865" y="671" type="line"/>
      <point x="790" y="690"/>
      <point x="672" y="706"/>
      <point x="564" y="706" type="curve" smooth="yes"/>
      <point x="302" y="706"/>
      <point x="108" y="602"/>
      <point x="111" y="342" type="curve" smooth="yes"/>
      <point x="114" y="108"/>
      <point x="253" y="-18"/>
    </contour>
    <contour>
      <point x="536" y="118" type="curve" smooth="yes"/>
      <point x="381" y="118"/>
      <point x="292" y="193"/>
      <point x="292" y="356" type="curve" smooth="yes"/>
      <point x="292" y="546"/>
      <point x="441" y="581"/>
      <point x="613" y="581" type="curve" smooth="yes"/>
      <point x="751" y="581"/>
      <point x="822" y="564"/>
      <point x="865" y="554" type="curve"/>
      <point x="865" y="274" type="line"/>
      <point x="773" y="188"/>
      <point x="665" y="118"/>
    </contour>
    <contour>
      <point x="586" y="1168" type="move" name="top"/>
    </contour>
    <contour>
      <point x="994" y="0" type="move" name="ogonek"/>
    </contour>
  </outline>
</glyph>
<glyph name="b" format="1">
  <advance width="1278"/>
  <unicode hex="0062"/>
  <outline>
    <contour>
      <point x="686" y="-18" type="curve" smooth="yes"/>
      <point x="1031" y="-18"/>
      <point x="1184" y="277"/>
      <point x="1184" y="580" type="curve" smooth="yes"/>
      <point x="1184" y="926"/>
      <point x="1027" y="1186"/>
      <point x="712" y="1186" type="curve" smooth="yes"/>
      <point x="558.627" y="1186"/>
      <point x="435.845" y="1126.89"/>
      <point x="350" y="1041.16" type="curve"/>
      <point x="350" y="1614" type="line"/>
      <point x="160" y="1579" type="line"/>
      <point x="160" y="5.0354e-06" type="line"/>
      <point x="300" y="5.0354e-06" type="line"/>
      <point x="327.054" y="145.011" type="line"/>
      <point x="400.585" y="60.4476"/>
      <point x="513.931" y="-18"/>
    </contour>
    <contour>
      <point x="693" y="119" type="curve" smooth="yes"/>
      <point x="525.618" y="119"/>
      <point x="426.357" y="175.767"/>
      <point x="349.617" y="265.946" type="curve"/>
      <point x="350" y="912.82" type="line"/>
      <point x="438.02" y="990.6"/>
      <point x="552.187" y="1043"/>
      <point x="680" y="1043" type="curve" smooth="yes"/>
      <point x="891" y="1043"/>
      <point x="1002" y="884"/>
      <point x="1002" y="584" type="curve" smooth="yes"/>
      <point x="1002" y="370"/>
      <point x="940" y="119"/>
    </contour>
    <contour>
      <point x="700" y="1168" type="move" name="top"/>
    </contour>
    <contour>
      <point x="698" y="0" type="move" name="bot"/>
    </contour>
  </outline>
</glyph>
<glyph name="c" format="1">
  <advance width="1075"/>
  <unicode hex="0063"/>
  <outline>
    <contour>
      <point x="646" y="-18" type="curve" smooth="yes"/>
      <point x="773" y="-18"/>
      <point x="887" y="24"/>
      <point x="990" y="111" type="curve"/>
      <point x="930" y="231" type="line"/>
      <point x="853" y="168"/>
      <point x="759" y="119"/>
      <point x="651" y="119" type="curve" smooth="yes"/>
      <point x="389" y="119"/>
      <point x="282" y="353"/>
      <point x="282" y="580" type="curve" smooth="yes"/>
      <point x="282" y="810"/>
      <point x="376" y="1045"/>
      <point x="631" y="1045" type="curve" smooth="yes"/>
      <point x="741" y="1045"/>
      <point x="850" y="1009"/>
      <point x="933" y="933" type="curve"/>
      <point x="990" y="1057" type="line"/>
      <point x="882" y="1145"/>
      <point x="760" y="1186"/>
      <point x="626" y="1186" type="curve" smooth="yes"/>
      <point x="282" y="1186"/>
      <point x="94" y="911"/>
      <point x="94" y="584" type="curve" smooth="yes"/>
      <point x="94" y="255"/>
      <point x="291" y="-18"/>
    </contour>
    <contour>
      <point x="630" y="1168" type="move" name="top"/>
    </contour>
    <contour>
      <point x="628" y="0" type="move" name="bot"/>
    </contour>
  </outline>
</glyph>
<glyph name="d" format="1">
  <advance width="1303"/>
  <unicode hex="0064"/>
  <outline>
    <contour>
      <point x="618" y="-18" type="curve" smooth="yes"/>
      <point x="781" y="-18"/>
      <point x="891" y="52"/>
      <point x="965" y="131" type="curve"/>
      <point x="989" y="0" type="line"/>
      <point x="1129" y="0" type="line"/>
      <point x="1129" y="1614" type="line"/>
      <point x="939" y="1579" type="line"/>
      <point x="939" y="1056" type="line"/>
      <point x="854" y="1133"/>
      <point x="737" y="1186"/>
      <point x="592" y="1186" type="curve" smooth="yes"/>
      <point x="277" y="1186"/>
      <point x="120" y="927"/>
      <point x="120" y="580" type="curve" smooth="yes"/>
      <point x="120" y="277"/>
      <point x="273" y="-18"/>
    </contour>
    <contour>
      <point x="603" y="119" type="curve" smooth="yes"/>
      <point x="356" y="138"/>
      <point x="302" y="390"/>
      <point x="302" y="584" type="curve" smooth="yes"/>
      <point x="302" y="884"/>
      <point x="413" y="1043"/>
      <point x="624" y="1043" type="curve" smooth="yes"/>
      <point x="744" y="1043"/>
      <point x="853" y="996"/>
      <point x="939" y="925" type="curve"/>
      <point x="941" y="255" type="line"/>
      <point x="862" y="171"/>
      <point x="761" y="107"/>
    </contour>
    <contour>
      <point x="1015" y="1168" type="move" name="caron.alt"/>
    </contour>
    <contour>
      <point x="606" y="1168" type="move" name="top"/>
    </contour>
    <contour>
      <point x="992" y="1381" type="move" name="mid"/>
    </contour>
    <contour>
      <point x="604" y="0" type="move" name="bot"/>
    </contour>
  </outline>
</glyph>
<glyph name="e" format="1">
  <advance width="1163"/>
  <unicode hex="0065"/>
  <outline>
    <contour>
      <point x="624" y="-18" type="curve" smooth="yes"/>
      <point x="762" y="-18"/>
      <point x="937" y="27"/>
      <point x="1031" y="108" type="curve"/>
      <point x="975" y="232" type="line"/>
      <point x="934" y="198"/>
      <point x="811" y="119"/>
      <point x="657" y="119" type="curve" smooth="yes"/>
      <point x="450" y="119"/>
      <point x="283" y="234"/>
      <point x="280" y="563" type="curve"/>
      <point x="1058" y="563" type="line"/>
      <point x="1064" y="600"/>
      <point x="1069" y="638"/>
      <point x="1069" y="676" type="curve" smooth="yes"/>
      <point x="1069" y="965"/>
      <point x="923" y="1186"/>
      <point x="615" y="1186" type="curve" smooth="yes"/>
      <point x="263" y="1186"/>
      <point x="94" y="897"/>
      <point x="94" y="578" type="curve" smooth="yes"/>
      <point x="94" y="246"/>
      <point x="271" y="-18"/>
    </contour>
    <contour>
      <point x="285" y="687" type="line"/>
      <point x="302" y="887"/>
      <point x="388" y="1046"/>
      <point x="616" y="1046" type="curve" smooth="yes"/>
      <point x="821" y="1046"/>
      <point x="901" y="896"/>
      <point x="901" y="715" type="curve" smooth="yes"/>
      <point x="901" y="687" type="line"/>
    </contour>
    <contour>
      <point x="614" y="1168" type="move" name="top"/>
    </contour>
    <contour>
      <point x="708" y="0" type="move" name="ogonek"/>
    </contour>
    <contour>
      <point x="627" y="0" type="move" name="bot"/>
    </contour>
  </outline>
</glyph>
<glyph name="f" format="1">
  <advance width="850"/>
  <unicode hex="0066"/>
  <outline>
    <contour>
      <point x="296" y="0" type="line"/>
      <point x="482" y="0" type="line"/>
      <point x="482" y="1045" type="line"/>
      <point x="829" y="1045" type="line"/>
      <point x="829" y="1168" type="line"/>
      <point x="482" y="1168" type="line"/>
      <point x="482" y="1252" type="line" smooth="yes"/>
      <point x="482" y="1485"/>
      <point x="593" y="1508"/>
      <point x="666" y="1509" type="curve" smooth="yes"/>
      <point x="705" y="1510"/>
      <point x="773" y="1493"/>
      <point x="823" y="1474" type="curve"/>
      <point x="862" y="1599" type="line"/>
      <point x="791" y="1628"/>
      <point x="716" y="1646"/>
      <point x="646" y="1648" type="curve" smooth="yes"/>
      <point x="488" y="1653"/>
      <point x="296" y="1569"/>
      <point x="296" y="1260" type="curve" smooth="yes"/>
      <point x="296" y="1168" type="line"/>
      <point x="92" y="1168" type="line"/>
      <point x="92" y="1045" type="line"/>
      <point x="296" y="1045" type="line"/>
    </contour>
    <contour>
      <point x="357" y="1578" type="move" name="top"/>
    </contour>
    <contour>
      <point x="355" y="0" type="move" name="bot"/>
    </contour>
  </outline>
</glyph>
<glyph name="g" format="1">
  <advance width="1215"/>
  <unicode hex="0067"/>
  <outline>
    <contour>
      <point x="540" y="-420" type="curve" smooth="yes"/>
      <point x="846" y="-420"/>
      <point x="1121" y="-354"/>
      <point x="1121" y="-84" type="curve" smooth="yes"/>
      <point x="1121" y="198"/>
      <point x="920" y="219"/>
      <point x="663" y="219" type="curve" smooth="yes"/>
      <point x="371" y="219" type="line"/>
      <point x="371" y="219"/>
      <point x="330" y="261"/>
      <point x="330" y="321" type="curve" smooth="yes"/>
      <point x="330" y="385"/>
      <point x="376" y="464"/>
      <point x="376" y="464" type="curve"/>
      <point x="376" y="464"/>
      <point x="451" y="421"/>
      <point x="581" y="421" type="curve" smooth="yes"/>
      <point x="835" y="421"/>
      <point x="1025" y="547"/>
      <point x="1025" y="824" type="curve"/>
      <point x="1023" y="896"/>
      <point x="989" y="975"/>
      <point x="945" y="1011" type="curve"/>
      <point x="1187" y="1038" type="line"/>
      <point x="1176" y="1167" type="line"/>
      <point x="1067" y="1166"/>
      <point x="970" y="1161"/>
      <point x="871" y="1110" type="curve"/>
      <point x="792" y="1171"/>
      <point x="688" y="1186"/>
      <point x="591" y="1186" type="curve" smooth="yes"/>
      <point x="318" y="1186"/>
      <point x="138" y="1021"/>
      <point x="138" y="818" type="curve" smooth="yes"/>
      <point x="138" y="631"/>
      <point x="248" y="531"/>
      <point x="302" y="503" type="curve"/>
      <point x="199" y="411"/>
      <point x="164" y="338"/>
      <point x="164" y="274" type="curve" smooth="yes"/>
      <point x="164" y="180"/>
      <point x="243" y="119"/>
      <point x="306" y="108" type="curve"/>
      <point x="207" y="62"/>
      <point x="140" y="-20"/>
      <point x="140" y="-135" type="curve" smooth="yes"/>
      <point x="140" y="-378"/>
      <point x="338" y="-420"/>
    </contour>
    <contour>
      <point x="550" y="-278" type="curve" smooth="yes"/>
      <point x="427" y="-278"/>
      <point x="303" y="-260"/>
      <point x="303" y="-120" type="curve" smooth="yes"/>
      <point x="303" y="-45"/>
      <point x="335" y="41"/>
      <point x="398" y="81" type="curve"/>
      <point x="706" y="81" type="line" smooth="yes"/>
      <point x="843" y="81"/>
      <point x="954" y="91"/>
      <point x="954" y="-89" type="curve" smooth="yes"/>
      <point x="954" y="-262"/>
      <point x="756" y="-278"/>
    </contour>
    <contour>
      <point x="591" y="552" type="curve" smooth="yes"/>
      <point x="384" y="552"/>
      <point x="308" y="656"/>
      <point x="308" y="811" type="curve" smooth="yes"/>
      <point x="308" y="950"/>
      <point x="399" y="1053"/>
      <point x="598" y="1053" type="curve" smooth="yes"/>
      <point x="789" y="1053"/>
      <point x="864" y="953"/>
      <point x="864" y="797" type="curve" smooth="yes"/>
      <point x="864" y="687"/>
      <point x="794" y="552"/>
    </contour>
    <contour>
      <point x="582" y="1168" type="move" name="top"/>
    </contour>
    <contour>
      <point x="580" y="0" type="move" name="bot"/>
    </contour>
  </outline>
</glyph>
<glyph name="h" format="1">
  <advance width="1284"/>
  <unicode hex="0068"/>
  <outline>
    <contour>
      <point x="160" y="0.00012207" type="line"/>
      <point x="346" y="0.00012207" type="line"/>
      <point x="346" y="870.468" type="line"/>
      <point x="427.903" y="954.234"/>
      <point x="541.922" y="1042"/>
      <point x="711" y="1042" type="curve" smooth="yes"/>
      <point x="902" y="1042"/>
      <point x="939" y="880"/>
      <point x="939" y="727" type="curve" smooth="yes"/>
      <point x="939" y="0.000221252" type="line"/>
      <point x="1125" y="0.000221252" type="line"/>
      <point x="1125" y="727" type="line" smooth="yes"/>
      <point x="1125" y="982"/>
      <point x="1028" y="1186"/>
      <point x="728" y="1186" type="curve" smooth="yes"/>
      <point x="560.781" y="1186"/>
      <point x="436.375" y="1107.34"/>
      <point x="346" y="1020.98" type="curve"/>
      <point x="346" y="1616" type="line"/>
      <point x="160" y="1579" type="line"/>
    </contour>
    <contour>
      <point x="730" y="1168" type="move" name="top"/>
    </contour>
    <contour>
      <point x="728" y="0" type="move" name="bot"/>
    </contour>
  </outline>
</glyph>
<glyph name="i" format="1">
  <advance width="526"/>
  <unicode hex="0069"/>
  <outline>
    <contour>
      <point x="183" y="0" type="line"/>
      <point x="369" y="0" type="line"/>
      <point x="369" y="1169" type="line"/>
      <point x="183" y="1169" type="line"/>
    </contour>
    <contour>
      <point x="282" y="1347" type="curve" smooth="yes"/>
      <point x="347" y="1347"/>
      <point x="390" y="1400"/>
      <point x="390" y="1462" type="curve" smooth="yes"/>
      <point x="390" y="1524"/>
      <point x="347" y="1577"/>
      <point x="282" y="1577" type="curve" smooth="yes"/>
      <point x="219" y="1577"/>
      <point x="170" y="1524"/>
      <point x="170" y="1462" type="curve" smooth="yes"/>
      <point x="170" y="1399"/>
      <point x="218" y="1347"/>
    </contour>
  </outline>
</glyph>
<glyph name="j" format="1">
  <advance width="535"/>
  <unicode hex="006A"/>
  <outline>
    <contour>
      <point x="11" y="-463" type="line"/>
      <point x="249" y="-405"/>
      <point x="380" y="-298"/>
      <point x="380" y="44" type="curve" smooth="yes"/>
      <point x="380" y="1169" type="line"/>
      <point x="190" y="1169" type="line"/>
      <point x="190" y="66" type="line" smooth="yes"/>
      <point x="190" y="-194"/>
      <point x="175" y="-239"/>
      <point x="-39" y="-324" type="curve"/>
    </contour>
    <contour>
      <point x="289" y="1347" type="curve" smooth="yes"/>
      <point x="354" y="1347"/>
      <point x="397" y="1400"/>
      <point x="397" y="1462" type="curve" smooth="yes"/>
      <point x="397" y="1524"/>
      <point x="354" y="1577"/>
      <point x="289" y="1577" type="curve" smooth="yes"/>
      <point x="226" y="1577"/>
      <point x="177" y="1524"/>
      <point x="177" y="1462" type="curve" smooth="yes"/>
      <point x="177" y="1399"/>
      <point x="225" y="1347"/>
    </contour>
  </outline>
</glyph>
<glyph name="k" format="1">
  <advance width="1128"/>
  <unicode hex="006B"/>
  <outline>
    <contour>
      <point x="160" y="0" type="line"/>
      <point x="346" y="0" type="line"/>
      <point x="346" y="479.025" type="line"/>
      <point x="453" y="578" type="line"/>
      <point x="933" y="-6.10352e-06" type="line"/>
      <point x="1140" y="-6.10352e-06" type="line"/>
      <point x="591" y="657" type="line"/>
      <point x="1096" y="1169" type="line"/>
      <point x="875" y="1169" type="line"/>
      <point x="346" y="640" type="line"/>
      <point x="346" y="1616" type="line"/>
      <point x="160" y="1579" type="line"/>
    </contour>
    <contour>
      <point x="630" y="1168" type="move" name="top"/>
    </contour>
    <contour>
      <point x="628" y="0" type="move" name="bot"/>
    </contour>
  </outline>
</glyph>
<glyph name="l" format="1">
  <advance width="571"/>
  <unicode hex="006C"/>
  <outline>
    <contour>
      <point x="160" y="0" type="line"/>
      <point x="346" y="0" type="line"/>
      <point x="346" y="1616" type="line"/>
      <point x="160" y="1579" type="line"/>
    </contour>
    <contour>
      <point x="260" y="1578" type="move" name="top"/>
    </contour>
    <contour>
      <point x="171" y="870" type="move" name="mid"/>
    </contour>
    <contour>
      <point x="258" y="0" type="move" name="bot"/>
    </contour>
  </outline>
</glyph>
<glyph name="m" format="1">
  <advance width="1994"/>
  <unicode hex="006D"/>
  <outline>
    <contour>
      <point x="160" y="-3.8147e-06" type="line"/>
      <point x="346" y="-3.8147e-06" type="line"/>
      <point x="346" y="863.937" type="line"/>
      <point x="467.634" y="983.579"/>
      <point x="600.205" y="1042"/>
      <point x="709" y="1042" type="curve" smooth="yes"/>
      <point x="881" y="1042"/>
      <point x="909" y="908"/>
      <point x="909" y="764" type="curve" smooth="yes"/>
      <point x="909" y="9.75464e-05" type="line"/>
      <point x="1099" y="9.75464e-05" type="line"/>
      <point x="1099" y="769" type="line" smooth="yes"/>
      <point x="1099" y="785.365"/>
      <point x="1098.49" y="819.922"/>
      <point x="1092.13" y="862.474" type="curve"/>
      <point x="1218.52" y="992.132"/>
      <point x="1340.81" y="1042"/>
      <point x="1459" y="1042" type="curve" smooth="yes"/>
      <point x="1630" y="1042"/>
      <point x="1654" y="908"/>
      <point x="1654" y="764" type="curve" smooth="yes"/>
      <point x="1654" y="2.71606e-07" type="line"/>
      <point x="1844" y="2.71606e-07" type="line"/>
      <point x="1844" y="762" type="line" smooth="yes"/>
      <point x="1844" y="988"/>
      <point x="1736" y="1186"/>
      <point x="1487" y="1186" type="curve" smooth="yes"/>
      <point x="1351.63" y="1186"/>
      <point x="1194.19" y="1137.03"/>
      <point x="1060.51" y="980.672" type="curve"/>
      <point x="1017.93" y="1084.65"/>
      <point x="928.343" y="1186"/>
      <point x="740" y="1186" type="curve" smooth="yes"/>
      <point x="604.313" y="1186"/>
      <point x="470.065" y="1137.81"/>
      <point x="327.496" y="993.264" type="curve"/>
      <point x="300" y="1169" type="line"/>
      <point x="160" y="1169" type="line"/>
    </contour>
    <contour>
      <point x="1030" y="1168" type="move" name="top"/>
    </contour>
    <contour>
      <point x="1028" y="0" type="move" name="bot"/>
    </contour>
  </outline>
</glyph>
<glyph name="n" format="1">
  <advance width="1275"/>
  <unicode hex="006E"/>
  <outline>
    <contour>
      <point x="160" y="0" type="line"/>
      <point x="346" y="0" type="line"/>
      <point x="346" y="871.282" type="line"/>
      <point x="429.385" y="954.734"/>
      <point x="546.348" y="1042"/>
      <point x="716" y="1042" type="curve" smooth="yes"/>
      <point x="907" y="1042"/>
      <point x="939" y="880"/>
      <point x="939" y="723" type="curve" smooth="yes"/>
      <point x="939" y="-1.77002e-06" type="line"/>
      <point x="1125" y="-1.77002e-06" type="line"/>
      <point x="1125" y="723" type="line" smooth="yes"/>
      <point x="1125" y="982"/>
      <point x="1028" y="1186"/>
      <point x="728" y="1186" type="curve" smooth="yes"/>
      <point x="548.077" y="1186"/>
      <point x="417.719" y="1096.09"/>
      <point x="325.988" y="1002.91" type="curve"/>
      <point x="300" y="1169" type="line"/>
      <point x="160" y="1169" type="line"/>
    </contour>
    <contour>
      <point x="680" y="1168" type="move" name="top"/>
    </contour>
    <contour>
      <point x="678" y="0" type="move" name="bot"/>
    </contour>
  </outline>
</glyph>
<glyph name="o" format="1">
  <advance width="1308"/>
  <unicode hex="006F"/>
  <outline>
    <contour>
      <point x="654" y="126" type="curve" smooth="yes"/>
      <point x="404" y="126"/>
      <point x="308" y="355"/>
      <point x="308" y="586" type="curve" smooth="yes"/>
      <point x="308" y="816"/>
      <point x="403" y="1042"/>
      <point x="654" y="1042" type="curve" smooth="yes"/>
      <point x="905" y="1042"/>
      <point x="1000" y="816"/>
      <point x="1000" y="586" type="curve" smooth="yes"/>
      <point x="1000" y="355"/>
      <point x="904" y="126"/>
    </contour>
    <contour>
      <point x="654" y="-18" type="curve" smooth="yes"/>
      <point x="1013" y="-18"/>
      <point x="1188" y="249"/>
      <point x="1188" y="582" type="curve" smooth="yes"/>
      <point x="1188" y="914"/>
      <point x="1013" y="1186"/>
      <point x="654" y="1186" type="curve" smooth="yes"/>
      <point x="295" y="1186"/>
      <point x="120" y="914"/>
      <point x="120" y="582" type="curve" smooth="yes"/>
      <point x="120" y="249"/>
      <point x="295" y="-18"/>
    </contour>
    <contour>
      <point x="657" y="1168" type="move" name="top"/>
    </contour>
    <contour>
      <point x="714" y="0" type="move" name="ogonek"/>
    </contour>
  </outline>
</glyph>
<glyph name="p" format="1">
  <advance width="1259"/>
  <unicode hex="0070"/>
  <outline>
    <contour>
      <point x="160" y="-478" type="line"/>
      <point x="350" y="-453" type="line"/>
      <point x="350" y="103.105" type="line"/>
      <point x="422.664" y="36.2109"/>
      <point x="524.771" y="-18"/>
      <point x="667" y="-18" type="curve" smooth="yes"/>
      <point x="1012" y="-18"/>
      <point x="1165" y="279"/>
      <point x="1165" y="580" type="curve" smooth="yes"/>
      <point x="1165" y="924"/>
      <point x="1008" y="1186"/>
      <point x="693" y="1186" type="curve" smooth="yes"/>
      <point x="534.635" y="1186"/>
      <point x="413.755" y="1123.87"/>
      <point x="329.992" y="1038.24" type="curve"/>
      <point x="300" y="1169" type="line"/>
      <point x="160" y="1169" type="line"/>
    </contour>
    <contour>
      <point x="660" y="118" type="curve" smooth="yes"/>
      <point x="519.639" y="118"/>
      <point x="424.018" y="169.194"/>
      <point x="350" y="247.032" type="curve"/>
      <point x="350" y="926.182" type="line"/>
      <point x="435.445" y="995.712"/>
      <point x="542.791" y="1042"/>
      <point x="661" y="1042" type="curve" smooth="yes"/>
      <point x="874" y="1041"/>
      <point x="983" y="879"/>
      <point x="983" y="584" type="curve" smooth="yes"/>
      <point x="983" y="320"/>
      <point x="899" y="118"/>
    </contour>
    <contour>
      <point x="680" y="1168" type="move" name="top"/>
    </contour>
    <contour>
      <point x="678" y="0" type="move" name="bot"/>
    </contour>
  </outline>
</glyph>
<glyph name="q" format="1">
  <advance width="1259"/>
  <unicode hex="0071"/>
  <outline>
    <contour>
      <point x="1099" y="-453" type="line"/>
      <point x="1099" y="1169" type="line"/>
      <point x="959" y="1169" type="line"/>
      <point x="929" y="1038" type="line"/>
      <point x="845" y="1124"/>
      <point x="724" y="1186"/>
      <point x="566" y="1186" type="curve" smooth="yes"/>
      <point x="251" y="1186"/>
      <point x="94" y="924"/>
      <point x="94" y="580" type="curve" smooth="yes"/>
      <point x="94" y="279"/>
      <point x="247" y="-18"/>
      <point x="592" y="-18" type="curve" smooth="yes"/>
      <point x="734" y="-18"/>
      <point x="836" y="36"/>
      <point x="909" y="103" type="curve"/>
      <point x="909" y="-478" type="line"/>
    </contour>
    <contour>
      <point x="599" y="118" type="curve" smooth="yes"/>
      <point x="360" y="118"/>
      <point x="276" y="320"/>
      <point x="276" y="584" type="curve" smooth="yes"/>
      <point x="276" y="879"/>
      <point x="385" y="1041"/>
      <point x="598" y="1042" type="curve" smooth="yes"/>
      <point x="716" y="1042"/>
      <point x="824" y="996"/>
      <point x="909" y="926" type="curve"/>
      <point x="909" y="247" type="line"/>
      <point x="835" y="169"/>
      <point x="739" y="118"/>
    </contour>
    <contour>
      <point x="579" y="1168" type="move" name="top"/>
    </contour>
    <contour>
      <point x="581" y="0" type="move" name="bot"/>
    </contour>
  </outline>
</glyph>
<glyph name="r" format="1">
  <advance width="821"/>
  <unicode hex="0072"/>
  <outline>
    <contour>
      <point x="178" y="0" type="line"/>
      <point x="364" y="0" type="line"/>
      <point x="363" y="881" type="line"/>
      <point x="450" y="945"/>
      <point x="577" y="1013"/>
      <point x="747" y="1026" type="curve"/>
      <point x="728" y="1180" type="line"/>
      <point x="636" y="1180"/>
      <point x="473" y="1118"/>
      <point x="347" y="982" type="curve"/>
      <point x="318" y="1168" type="line"/>
      <point x="178" y="1168" type="line"/>
    </contour>
    <contour>
      <point x="470" y="1168" type="move" name="top"/>
    </contour>
    <contour>
      <point x="468" y="0" type="move" name="bot"/>
    </contour>
  </outline>
</glyph>
<glyph name="s" format="1">
  <advance width="1067"/>
  <unicode hex="0073"/>
  <outline>
    <contour>
      <point x="557" y="-18" type="curve" smooth="yes"/>
      <point x="776" y="-18"/>
      <point x="959" y="79"/>
      <point x="959" y="331" type="curve" smooth="yes"/>
      <point x="959" y="531"/>
      <point x="844" y="607"/>
      <point x="670" y="660" type="curve" smooth="yes"/>
      <point x="457" y="725" type="line" smooth="yes"/>
      <point x="337" y="762"/>
      <point x="312" y="806"/>
      <point x="312" y="888" type="curve" smooth="yes"/>
      <point x="315" y="1019"/>
      <point x="445" y="1042"/>
      <point x="551" y="1042" type="curve" smooth="yes"/>
      <point x="663" y="1042"/>
      <point x="768" y="1016"/>
      <point x="850" y="963" type="curve"/>
      <point x="914" y="1079" type="line"/>
      <point x="830" y="1143"/>
      <point x="700" y="1186"/>
      <point x="530" y="1186" type="curve" smooth="yes"/>
      <point x="340" y="1186"/>
      <point x="137" y="1096"/>
      <point x="137" y="878" type="curve" smooth="yes"/>
      <point x="137" y="698"/>
      <point x="238" y="616"/>
      <point x="399" y="569" type="curve" smooth="yes"/>
      <point x="623" y="503" type="line" smooth="yes"/>
      <point x="744" y="467"/>
      <point x="792" y="427"/>
      <point x="787" y="300" type="curve" smooth="yes"/>
      <point x="781" y="158"/>
      <point x="655" y="126"/>
      <point x="545" y="126" type="curve" smooth="yes"/>
      <point x="439" y="126"/>
      <point x="305" y="176"/>
      <point x="214" y="237" type="curve"/>
      <point x="157" y="110" type="line"/>
      <point x="242" y="42"/>
      <point x="395" y="-18"/>
    </contour>
    <contour>
      <point x="542" y="1168" type="move" name="top"/>
    </contour>
    <contour>
      <point x="540" y="0" type="move" name="bot"/>
    </contour>
  </outline>
</glyph>
<glyph name="t" format="1">
  <advance width="855"/>
  <unicode hex="0074"/>
  <outline>
    <contour>
      <point x="540" y="-9" type="curve" smooth="yes"/>
      <point x="624" y="-11"/>
      <point x="714" y="0"/>
      <point x="788" y="35" type="curve"/>
      <point x="767" y="164" type="line"/>
      <point x="703" y="144"/>
      <point x="651" y="132"/>
      <point x="598" y="132" type="curve" smooth="yes"/>
      <point x="460" y="132"/>
      <point x="442" y="216"/>
      <point x="442" y="287" type="curve" smooth="yes"/>
      <point x="442" y="1045" type="line"/>
      <point x="775" y="1045" type="line"/>
      <point x="775" y="1168" type="line"/>
      <point x="442" y="1168" type="line"/>
      <point x="442" y="1576" type="line"/>
      <point x="280" y="1530" type="line"/>
      <point x="260" y="1168" type="line"/>
      <point x="69" y="1168" type="line"/>
      <point x="69" y="1045" type="line"/>
      <point x="256" y="1045" type="line"/>
      <point x="256" y="289" type="line" smooth="yes"/>
      <point x="256" y="105"/>
      <point x="351" y="-4"/>
    </contour>
    <contour>
      <point x="389" y="1468" type="move" name="caron.alt"/>
    </contour>
    <contour>
      <point x="312" y="1578" type="move" name="top"/>
    </contour>
    <contour>
      <point x="387" y="683" type="move" name="mid"/>
    </contour>
    <contour>
      <point x="510" y="0" type="move" name="bot"/>
    </contour>
  </outline>
</glyph>
<glyph name="u" format="1">
  <advance width="1293"/>
  <unicode hex="0075"/>
  <outline>
    <contour>
      <point x="558" y="-18" type="curve" smooth="yes"/>
      <point x="764" y="-18"/>
      <point x="885" y="79"/>
      <point x="965" y="165" type="curve"/>
      <point x="992" y="0" type="line"/>
      <point x="1133" y="0" type="line"/>
      <point x="1133" y="1169" type="line"/>
      <point x="943" y="1169" type="line"/>
      <point x="943" y="298" type="line"/>
      <point x="848" y="205"/>
      <point x="762" y="126"/>
      <point x="569" y="126" type="curve" smooth="yes"/>
      <point x="385" y="126"/>
      <point x="340" y="265"/>
      <point x="340" y="429" type="curve" smooth="yes"/>
      <point x="340" y="1169" type="line"/>
      <point x="150" y="1169" type="line"/>
      <point x="150" y="429" type="line" smooth="yes"/>
      <point x="150" y="141"/>
      <point x="276" y="-18"/>
    </contour>
    <contour>
      <point x="650" y="1168" type="move" name="top"/>
    </contour>
    <contour>
      <point x="1060" y="0" type="move" name="ogonek"/>
    </contour>
  </outline>
</glyph>
<glyph name="v" format="1">
  <advance width="1152"/>
  <unicode hex="0076"/>
  <outline>
    <contour>
      <point x="486" y="0" type="line"/>
      <point x="667" y="0" type="line"/>
      <point x="1080" y="1169" type="line"/>
      <point x="895" y="1169" type="line"/>
      <point x="580" y="175" type="line"/>
      <point x="246" y="1169" type="line"/>
      <point x="63" y="1169" type="line"/>
    </contour>
  </outline>
</glyph>
<glyph name="w" format="1">
  <advance width="1608"/>
  <unicode hex="0077"/>
  <outline>
    <contour>
      <point x="1066" y="0" type="line"/>
      <point x="1266" y="0" type="line"/>
      <point x="1579" y="1169" type="line"/>
      <point x="1400" y="1169" type="line"/>
      <point x="1172" y="152" type="line"/>
      <point x="903" y="1169" type="line"/>
      <point x="701" y="1169" type="line"/>
      <point x="444" y="154" type="line"/>
      <point x="196" y="1169" type="line"/>
      <point x="22" y="1169" type="line"/>
      <point x="342" y="0" type="line"/>
      <point x="541" y="0" type="line"/>
      <point x="802" y="1007" type="line"/>
    </contour>
    <contour>
      <point x="800" y="1168" type="move" name="top"/>
    </contour>
    <contour>
      <point x="798" y="0" type="move" name="bot"/>
    </contour>
  </outline>
</glyph>
<glyph name="x" format="1">
  <advance width="1116"/>
  <unicode hex="0078"/>
  <outline>
    <contour>
      <point x="69" y="0" type="line"/>
      <point x="262" y="0" type="line"/>
      <point x="559" y="467" type="line"/>
      <point x="846" y="0" type="line"/>
      <point x="1037" y="0" type="line"/>
      <point x="653" y="584" type="line"/>
      <point x="1044" y="1169" type="line"/>
      <point x="852" y="1169" type="line"/>
      <point x="553" y="712" type="line"/>
      <point x="256" y="1169" type="line"/>
      <point x="63" y="1169" type="line"/>
      <point x="459" y="584" type="line"/>
    </contour>
  </outline>
</glyph>
<glyph name="y" format="1">
  <advance width="1159"/>
  <unicode hex="0079"/>
  <outline>
    <contour>
      <point x="218" y="-424" type="line"/>
      <point x="495" y="-424"/>
      <point x="579" y="-259"/>
      <point x="659" y="-37" type="curve" smooth="yes"/>
      <point x="1096" y="1168" type="line"/>
      <point x="901" y="1168" type="line"/>
      <point x="600" y="220" type="line"/>
      <point x="245" y="1168" type="line"/>
      <point x="63" y="1168" type="line"/>
      <point x="514" y="23" type="line"/>
      <point x="452" y="-186"/>
      <point x="403" y="-290"/>
      <point x="178" y="-302" type="curve"/>
    </contour>
    <contour>
      <point x="607" y="1168" type="move" name="top"/>
    </contour>
    <contour>
      <point x="605" y="0" type="move" name="bot"/>
    </contour>
  </outline>
</glyph>
<glyph name="z" format="1">
  <advance width="999"/>
  <unicode hex="007A"/>
  <outline>
    <contour>
      <point x="110" y="0" type="line"/>
      <point x="888" y="0" type="line"/>
      <point x="888" y="145" type="line"/>
      <point x="310" y="145" type="line"/>
      <point x="900" y="1043" type="line"/>
      <point x="900" y="1168" type="line"/>
      <point x="140" y="1168" type="line"/>
      <point x="140" y="1028" type="line"/>
      <point x="711" y="1028" type="line"/>
      <point x="110" y="136" type="line"/>
    </contour>
    <contour>
      <point x="533" y="1168" type="move" name="top"/>
    </contour>
    <contour>
      <point x="531" y="0" type="move" name="bot"/>
    </contour>
  </outline>
</glyph>
<glyph name="braceleft" format="1">
  <advance width="855"/>
  <unicode hex="007B"/>
  <outline>
    <contour>
      <point x="741" y="-170" type="curve"/>
      <point x="741" y="-41" type="line"/>
      <point x="568" y="-41"/>
      <point x="506" y="21"/>
      <point x="503" y="273" type="curve" smooth="yes"/>
      <point x="499" y="607"/>
      <point x="462" y="709"/>
      <point x="241" y="734" type="curve"/>
      <point x="462" y="758"/>
      <point x="499" y="861"/>
      <point x="503" y="1195" type="curve" smooth="yes"/>
      <point x="506" y="1449"/>
      <point x="572" y="1509"/>
      <point x="741" y="1509" type="curve"/>
      <point x="741" y="1638" type="line"/>
      <point x="417" y="1638"/>
      <point x="312" y="1562"/>
      <point x="312" y="1166" type="curve" smooth="yes"/>
      <point x="312" y="853"/>
      <point x="262" y="818"/>
      <point x="94" y="818" type="curve"/>
      <point x="94" y="650" type="line"/>
      <point x="259" y="650"/>
      <point x="312" y="614"/>
      <point x="312" y="302" type="curve" smooth="yes"/>
      <point x="312" y="-94"/>
      <point x="417" y="-170"/>
    </contour>
  </outline>
</glyph>
<glyph name="bar" format="1">
  <advance width="720"/>
  <unicode hex="007C"/>
  <outline>
    <contour>
      <point x="271" y="-111" type="line"/>
      <point x="449" y="-111" type="line"/>
      <point x="449" y="1696" type="line"/>
      <point x="271" y="1696" type="line"/>
    </contour>
  </outline>
</glyph>
<glyph name="sterling" format="1">
  <advance width="1152"/>
  <unicode hex="00A3"/>
  <outline>
    <contour>
      <point x="168" y="0" type="line"/>
      <point x="965" y="0" type="line"/>
      <point x="965" y="132" type="line"/>
      <point x="349" y="132" type="line"/>
      <point x="435" y="249"/>
      <point x="468" y="464"/>
      <point x="468" y="603" type="curve"/>
      <point x="896" y="603" type="line"/>
      <point x="896" y="706" type="line"/>
      <point x="468" y="706" type="line"/>
      <point x="403" y="775"/>
      <point x="352" y="862"/>
      <point x="352" y="959" type="curve" smooth="yes"/>
      <point x="352" y="1126"/>
      <point x="469" y="1180"/>
      <point x="620" y="1180" type="curve" smooth="yes"/>
      <point x="739" y="1180"/>
      <point x="845" y="1139"/>
      <point x="950" y="1088" type="curve"/>
      <point x="1000" y="1219" type="line"/>
      <point x="882" y="1294"/>
      <point x="696" y="1322"/>
      <point x="561" y="1322" type="curve" smooth="yes"/>
      <point x="357" y="1322"/>
      <point x="170" y="1167"/>
      <point x="170" y="956" type="curve" smooth="yes"/>
      <point x="170" y="875"/>
      <point x="219" y="757"/>
      <point x="285" y="706" type="curve"/>
      <point x="113" y="706" type="line"/>
      <point x="113" y="603" type="line"/>
      <point x="310" y="603" type="line"/>
      <point x="310" y="463"/>
      <point x="267" y="236"/>
      <point x="168" y="126" type="curve"/>
    </contour>
  </outline>
</glyph>
<glyph name="yen" format="1">
  <advance width="1200"/>
  <unicode hex="00A5"/>
  <outline>
    <contour>
      <point x="502" y="0" type="line"/>
      <point x="692" y="0" type="line"/>
      <point x="692" y="389" type="line"/>
      <point x="988" y="389" type="line"/>
      <point x="988" y="488" type="line"/>
      <point x="692" y="488" type="line"/>
      <point x="692" y="584" type="line"/>
      <point x="988" y="584" type="line"/>
      <point x="988" y="688" type="line"/>
      <point x="725" y="688" type="line"/>
      <point x="1206" y="1579" type="line"/>
      <point x="1012" y="1579" type="line"/>
      <point x="592" y="788" type="line"/>
      <point x="172" y="1579" type="line"/>
      <point x="-17" y="1579" type="line"/>
      <point x="461" y="688" type="line"/>
      <point x="200" y="688" type="line"/>
      <point x="200" y="584" type="line"/>
      <point x="502" y="584" type="line"/>
      <point x="502" y="488" type="line"/>
      <point x="200" y="488" type="line"/>
      <point x="200" y="389" type="line"/>
      <point x="502" y="389" type="line"/>
    </contour>
  </outline>
</glyph>
<glyph name="brokenbar" format="1">
  <advance width="732"/>
  <unicode hex="00A6"/>
  <outline>
    <contour>
      <point x="264" y="0" type="line"/>
      <point x="452" y="0" type="line"/>
      <point x="452" y="690" type="line"/>
      <point x="264" y="690" type="line"/>
    </contour>
    <contour>
      <point x="264" y="889" type="line"/>
      <point x="452" y="889" type="line"/>
      <point x="452" y="1579" type="line"/>
      <point x="264" y="1579" type="line"/>
    </contour>
  </outline>
</glyph>
<glyph name="section" format="1">
  <advance width="1128"/>
  <unicode hex="00A7"/>
  <outline>
    <contour>
      <point x="535" y="-96" type="curve" smooth="yes"/>
      <point x="736" y="-96"/>
      <point x="951" y="-16"/>
      <point x="951" y="219" type="curve" smooth="yes"/>
      <point x="951" y="386"/>
      <point x="851" y="470"/>
      <point x="700" y="522" type="curve"/>
      <point x="823" y="531"/>
      <point x="949" y="610"/>
      <point x="949" y="746" type="curve" smooth="yes"/>
      <point x="949" y="949"/>
      <point x="801" y="1027"/>
      <point x="633" y="1083" type="curve" smooth="yes"/>
      <point x="520" y="1119" type="line" smooth="yes"/>
      <point x="400" y="1159"/>
      <point x="317" y="1194"/>
      <point x="317" y="1275" type="curve" smooth="yes"/>
      <point x="317" y="1402"/>
      <point x="447" y="1424"/>
      <point x="548" y="1424" type="curve" smooth="yes"/>
      <point x="655" y="1424"/>
      <point x="758" y="1381"/>
      <point x="842" y="1316" type="curve"/>
      <point x="900" y="1452" type="line"/>
      <point x="827" y="1516"/>
      <point x="634" y="1569"/>
      <point x="538" y="1569" type="curve" smooth="yes"/>
      <point x="365" y="1569"/>
      <point x="161" y="1487"/>
      <point x="161" y="1285" type="curve" smooth="yes"/>
      <point x="161" y="1115"/>
      <point x="269" y="1051"/>
      <point x="416" y="995" type="curve"/>
      <point x="292" y="980"/>
      <point x="161" y="913"/>
      <point x="161" y="771" type="curve" smooth="yes"/>
      <point x="161" y="560"/>
      <point x="310" y="496"/>
      <point x="471" y="448" type="curve" smooth="yes"/>
      <point x="547" y="424" type="line" smooth="yes"/>
      <point x="679" y="384"/>
      <point x="782" y="344"/>
      <point x="782" y="223" type="curve" smooth="yes"/>
      <point x="782" y="82"/>
      <point x="637" y="50"/>
      <point x="523" y="50" type="curve" smooth="yes"/>
      <point x="426" y="50"/>
      <point x="305" y="93"/>
      <point x="232" y="158" type="curve"/>
      <point x="171" y="20" type="line"/>
      <point x="250" y="-45"/>
      <point x="434" y="-96"/>
    </contour>
    <contour>
      <point x="550" y="600" type="curve" smooth="yes"/>
      <point x="446" y="600"/>
      <point x="315" y="623"/>
      <point x="315" y="753" type="curve" smooth="yes"/>
      <point x="315" y="886"/>
      <point x="443" y="906"/>
      <point x="550" y="906" type="curve" smooth="yes"/>
      <point x="658" y="906"/>
      <point x="789" y="889"/>
      <point x="789" y="751" type="curve" smooth="yes"/>
      <point x="789" y="624"/>
      <point x="650" y="600"/>
    </contour>
  </outline>
</glyph>
<glyph name="copyright" format="1">
  <advance width="1934"/>
  <unicode hex="00A9"/>
  <outline>
    <contour>
      <point x="971" y="282" type="curve" smooth="yes"/>
      <point x="1115" y="282"/>
      <point x="1271" y="336"/>
      <point x="1358" y="417" type="curve"/>
      <point x="1301" y="503" type="line"/>
      <point x="1218" y="426"/>
      <point x="1095" y="381"/>
      <point x="978" y="381" type="curve" smooth="yes"/>
      <point x="738" y="381"/>
      <point x="589" y="542"/>
      <point x="589" y="808" type="curve" smooth="yes"/>
      <point x="589" y="1069"/>
      <point x="732" y="1230"/>
      <point x="960" y="1235" type="curve" smooth="yes"/>
      <point x="1083" y="1239"/>
      <point x="1211" y="1196"/>
      <point x="1293" y="1119" type="curve"/>
      <point x="1361" y="1198" type="line"/>
      <point x="1274" y="1282"/>
      <point x="1112" y="1337"/>
      <point x="959" y="1334" type="curve" smooth="yes"/>
      <point x="644" y="1327"/>
      <point x="445" y="1121"/>
      <point x="445" y="808" type="curve" smooth="yes"/>
      <point x="445" y="489"/>
      <point x="648" y="282"/>
    </contour>
    <contour>
      <point x="967" y="89" type="curve" smooth="yes"/>
      <point x="526" y="89"/>
      <point x="250" y="358"/>
      <point x="250" y="796" type="curve" smooth="yes"/>
      <point x="250" y="1234"/>
      <point x="526" y="1503"/>
      <point x="967" y="1503" type="curve" smooth="yes"/>
      <point x="1408" y="1503"/>
      <point x="1684" y="1234"/>
      <point x="1684" y="796" type="curve" smooth="yes"/>
      <point x="1684" y="358"/>
      <point x="1408" y="89"/>
    </contour>
    <contour>
      <point x="967" y="-18" type="curve" smooth="yes"/>
      <point x="1489" y="-18"/>
      <point x="1820" y="301"/>
      <point x="1820" y="796" type="curve" smooth="yes"/>
      <point x="1820" y="1291"/>
      <point x="1489" y="1610"/>
      <point x="967" y="1610" type="curve" smooth="yes"/>
      <point x="445" y="1610"/>
      <point x="114" y="1291"/>
      <point x="114" y="796" type="curve" smooth="yes"/>
      <point x="114" y="301"/>
      <point x="445" y="-18"/>
    </contour>
  </outline>
</glyph>
<glyph name="logicalnot" format="1">
  <advance width="1572"/>
  <unicode hex="00AC"/>
  <outline>
    <contour>
      <point x="1154" y="477" type="line"/>
      <point x="1330" y="477" type="line"/>
      <point x="1330" y="1168" type="line"/>
      <point x="206" y="1168" type="line"/>
      <point x="206" y="1017" type="line"/>
      <point x="1154" y="1017" type="line"/>
    </contour>
  </outline>
</glyph>
<glyph name="registered" format="1">
  <advance width="1934"/>
  <unicode hex="00AE"/>
  <outline>
    <contour>
      <point x="681" y="379" type="line"/>
      <point x="788" y="379" type="line"/>
      <point x="788" y="783" type="line"/>
      <point x="952" y="783" type="line" smooth="yes"/>
      <point x="1152" y="783"/>
      <point x="1183" y="739"/>
      <point x="1191" y="589" type="curve" smooth="yes"/>
      <point x="1202" y="379" type="line"/>
      <point x="1300" y="379" type="line"/>
      <point x="1289" y="602" type="line" smooth="yes"/>
      <point x="1283" y="726"/>
      <point x="1230" y="818"/>
      <point x="1135" y="825" type="curve"/>
      <point x="1227" y="846"/>
      <point x="1297" y="913"/>
      <point x="1297" y="1019" type="curve" smooth="yes"/>
      <point x="1297" y="1250"/>
      <point x="1108" y="1250"/>
      <point x="904" y="1250" type="curve" smooth="yes"/>
      <point x="681" y="1250" type="line"/>
    </contour>
    <contour>
      <point x="788" y="855" type="line"/>
      <point x="788" y="1171" type="line"/>
      <point x="904" y="1171" type="line" smooth="yes"/>
      <point x="1055" y="1171"/>
      <point x="1203" y="1187"/>
      <point x="1203" y="1013" type="curve" smooth="yes"/>
      <point x="1203" y="867"/>
      <point x="1096" y="855"/>
      <point x="986" y="855" type="curve" smooth="yes"/>
    </contour>
    <contour>
      <point x="967" y="89" type="curve" smooth="yes"/>
      <point x="526" y="89"/>
      <point x="250" y="358"/>
      <point x="250" y="796" type="curve" smooth="yes"/>
      <point x="250" y="1234"/>
      <point x="526" y="1503"/>
      <point x="967" y="1503" type="curve" smooth="yes"/>
      <point x="1408" y="1503"/>
      <point x="1684" y="1234"/>
      <point x="1684" y="796" type="curve" smooth="yes"/>
      <point x="1684" y="358"/>
      <point x="1408" y="89"/>
    </contour>
    <contour>
      <point x="967" y="-18" type="curve" smooth="yes"/>
      <point x="1489" y="-18"/>
      <point x="1820" y="301"/>
      <point x="1820" y="796" type="curve" smooth="yes"/>
      <point x="1820" y="1291"/>
      <point x="1489" y="1610"/>
      <point x="967" y="1610" type="curve" smooth="yes"/>
      <point x="445" y="1610"/>
      <point x="114" y="1291"/>
      <point x="114" y="796" type="curve" smooth="yes"/>
      <point x="114" y="301"/>
      <point x="445" y="-18"/>
    </contour>
  </outline>
</glyph>
<glyph name="macron" format="1">
  <advance width="1008"/>
  <unicode hex="00AF"/>
  <outline>
    <contour>
      <point x="160" y="1326" type="line"/>
      <point x="842" y="1326" type="line"/>
      <point x="842" y="1443" type="line"/>
      <point x="160" y="1443" type="line"/>
    </contour>
    <contour>
      <point x="505" y="1386" type="move" name="_mid"/>
    </contour>
    <contour>
      <point x="507" y="1168" type="move" name="_top"/>
    </contour>
  </outline>
</glyph>
<glyph name="degree" format="1">
  <advance width="852"/>
  <unicode hex="00B0"/>
  <outline>
    <contour>
      <point x="422" y="750" type="curve" smooth="yes"/>
      <point x="341" y="750"/>
      <point x="277" y="819"/>
      <point x="277" y="899" type="curve" smooth="yes"/>
      <point x="277" y="980"/>
      <point x="339" y="1048"/>
      <point x="422" y="1048" type="curve" smooth="yes"/>
      <point x="506" y="1048"/>
      <point x="563" y="981"/>
      <point x="563" y="899" type="curve" smooth="yes"/>
      <point x="563" y="817"/>
      <point x="506" y="750"/>
    </contour>
    <contour>
      <point x="424" y="660" type="curve" smooth="yes"/>
      <point x="562" y="660"/>
      <point x="660" y="762"/>
      <point x="660" y="899" type="curve" smooth="yes"/>
      <point x="660" y="1035"/>
      <point x="561" y="1139"/>
      <point x="424" y="1139" type="curve" smooth="yes"/>
      <point x="285" y="1139"/>
      <point x="180" y="1039"/>
      <point x="180" y="899" type="curve" smooth="yes"/>
      <point x="180" y="759"/>
      <point x="286" y="660"/>
    </contour>
  </outline>
</glyph>
<glyph name="uni00B2" format="1">
  <advance width="936"/>
  <unicode hex="00B2"/>
  <outline>
    <contour>
      <point x="139" y="668" type="line"/>
      <point x="777" y="668" type="line"/>
      <point x="777" y="820" type="line"/>
      <point x="371" y="820" type="line"/>
      <point x="399" y="844.136"/>
      <point x="432" y="870.157"/>
      <point x="467" y="898.022" type="curve" smooth="yes"/>
      <point x="618" y="1017.93"/>
      <point x="805" y="1171.99"/>
      <point x="805" y="1357" type="curve" smooth="yes"/>
      <point x="805" y="1551"/>
      <point x="637" y="1638"/>
      <point x="462" y="1638" type="curve" smooth="yes"/>
      <point x="359" y="1638"/>
      <point x="253" y="1625"/>
      <point x="156" y="1588" type="curve"/>
      <point x="156" y="1443" type="line"/>
      <point x="248" y="1468"/>
      <point x="348" y="1495"/>
      <point x="444" y="1495" type="curve" smooth="yes"/>
      <point x="534" y="1495"/>
      <point x="633" y="1460"/>
      <point x="633" y="1354" type="curve" smooth="yes"/>
      <point x="633" y="1251.87"/>
      <point x="501" y="1114.45"/>
      <point x="371" y="999.375" type="curve" smooth="yes"/>
      <point x="276" y="915.008"/>
      <point x="181" y="842.647"/>
      <point x="139" y="805" type="curve"/>
    </contour>
  </outline>
</glyph>
<glyph name="uni00B3" format="1">
  <advance width="996"/>
  <unicode hex="00B3"/>
  <outline>
    <contour>
      <point x="467" y="540" type="curve" smooth="yes"/>
      <point x="645" y="540"/>
      <point x="856" y="628"/>
      <point x="856" y="835" type="curve" smooth="yes"/>
      <point x="856" y="1006"/>
      <point x="739" y="1111"/>
      <point x="580" y="1142" type="curve"/>
      <point x="714" y="1143"/>
      <point x="825" y="1263"/>
      <point x="825" y="1394" type="curve" smooth="yes"/>
      <point x="825" y="1601"/>
      <point x="629" y="1677"/>
      <point x="452" y="1677" type="curve" smooth="yes"/>
      <point x="360" y="1677"/>
      <point x="249" y="1652"/>
      <point x="166" y="1611" type="curve"/>
      <point x="213" y="1484" type="line"/>
      <point x="285" y="1520"/>
      <point x="367" y="1541"/>
      <point x="447" y="1541" type="curve" smooth="yes"/>
      <point x="554" y="1541"/>
      <point x="671" y="1511"/>
      <point x="671" y="1383" type="curve" smooth="yes"/>
      <point x="671" y="1255"/>
      <point x="535" y="1207"/>
      <point x="428" y="1207" type="curve"/>
      <point x="428" y="1072" type="line"/>
      <point x="559" y="1057"/>
      <point x="690" y="1005"/>
      <point x="690" y="853" type="curve" smooth="yes"/>
      <point x="690" y="733"/>
      <point x="578" y="672"/>
      <point x="470" y="672" type="curve" smooth="yes"/>
      <point x="372" y="672"/>
      <point x="277" y="701"/>
      <point x="190" y="745" type="curve"/>
      <point x="139" y="618" type="line"/>
      <point x="222" y="564"/>
      <point x="369" y="540"/>
    </contour>
  </outline>
</glyph>
<glyph name="paragraph" format="1">
  <advance width="1256"/>
  <unicode hex="00B6"/>
  <outline>
    <contour>
      <point x="565" y="-160" type="line"/>
      <point x="739" y="-160" type="line"/>
      <point x="739" y="1428" type="line"/>
      <point x="912" y="1428" type="line"/>
      <point x="912" y="-160" type="line"/>
      <point x="1086" y="-160" type="line"/>
      <point x="1086" y="1578" type="line"/>
      <point x="610" y="1578" type="line" smooth="yes"/>
      <point x="437" y="1578"/>
      <point x="136" y="1551"/>
      <point x="136" y="1250" type="curve" smooth="yes"/>
      <point x="136" y="971"/>
      <point x="395" y="905"/>
      <point x="565" y="905" type="curve"/>
    </contour>
  </outline>
</glyph>
<glyph name="periodcentered" format="1">
  <advance width="660"/>
  <unicode hex="00B7"/>
  <outline>
    <contour>
      <point x="437" y="535" type="curve" smooth="yes"/>
      <point x="502" y="535"/>
      <point x="545" y="588"/>
      <point x="545" y="650" type="curve" smooth="yes"/>
      <point x="545" y="712"/>
      <point x="502" y="765"/>
      <point x="437" y="765" type="curve" smooth="yes"/>
      <point x="374" y="765"/>
      <point x="325" y="712"/>
      <point x="325" y="650" type="curve" smooth="yes"/>
      <point x="325" y="587"/>
      <point x="373" y="535"/>
    </contour>
    <contour>
      <point x="2" y="650" type="move" name="_mid"/>
    </contour>
  </outline>
</glyph>
<glyph name="uni00B9" format="1">
  <advance width="852"/>
  <unicode hex="00B9"/>
  <outline>
    <contour>
      <point x="471" y="478" type="line"/>
      <point x="640" y="478" type="line"/>
      <point x="640" y="1414" type="line"/>
      <point x="500" y="1440" type="line"/>
      <point x="263" y="1345" type="line"/>
      <point x="300" y="1232" type="line"/>
      <point x="471" y="1304" type="line"/>
    </contour>
  </outline>
</glyph>
<glyph name="uni00B9" format="1">
  <advance width="852"/>
  <unicode hex="00B9"/>
  <outline>
    <contour>
      <point x="471" y="580" type="line"/>
      <point x="640" y="580" type="line"/>
      <point x="640" y="1655" type="line"/>
      <point x="500" y="1681" type="line"/>
      <point x="263" y="1586" type="line"/>
      <point x="300" y="1473" type="line"/>
      <point x="471" y="1545" type="line"/>
    </contour>
  </outline>
</glyph>
<glyph name="onequarter" format="1">
  <advance width="1919"/>
  <unicode hex="00BC"/>
  <outline>
    <contour>
      <point x="1681" y="-18" type="line"/>
      <point x="1681" y="254" type="line"/>
      <point x="1832" y="254" type="line"/>
      <point x="1832" y="365" type="line"/>
      <point x="1681" y="365" type="line"/>
      <point x="1681" y="1085" type="line"/>
      <point x="1546" y="1116" type="line"/>
      <point x="1005" y="364" type="line"/>
      <point x="1027" y="254" type="line"/>
      <point x="1536" y="254" type="line"/>
      <point x="1536" y="0" type="line"/>
    </contour>
    <contour>
      <point x="356" y="658" type="line"/>
      <point x="516" y="658" type="line"/>
      <point x="516" y="1593" type="line"/>
      <point x="386" y="1619" type="line"/>
      <point x="152" y="1524" type="line"/>
      <point x="186" y="1431" type="line"/>
      <point x="356" y="1503" type="line"/>
    </contour>
    <contour>
      <point x="484" y="-33" type="line"/>
      <point x="1523" y="1613" type="line"/>
      <point x="1410" y="1677" type="line"/>
      <point x="373" y="31" type="line"/>
    </contour>
    <contour>
      <point x="1157" y="364" type="line"/>
      <point x="1536" y="903" type="line"/>
      <point x="1536" y="364" type="line"/>
    </contour>
  </outline>
</glyph>
<glyph name="onehalf" format="1">
  <advance width="2044"/>
  <unicode hex="00BD"/>
  <outline>
    <contour>
      <point x="1232" y="-1" type="line"/>
      <point x="1870" y="-1" type="line"/>
      <point x="1870" y="134" type="line"/>
      <point x="1437" y="134" type="line"/>
      <point x="1486.52" y="175.981"/>
      <point x="1552.19" y="223.341"/>
      <point x="1618.07" y="276.08" type="curve" smooth="yes"/>
      <point x="1753.07" y="384.139"/>
      <point x="1889" y="514.779"/>
      <point x="1889" y="668" type="curve" smooth="yes"/>
      <point x="1889" y="870"/>
      <point x="1730" y="948"/>
      <point x="1548" y="948" type="curve" smooth="yes"/>
      <point x="1448" y="948"/>
      <point x="1341" y="924"/>
      <point x="1249" y="885" type="curve"/>
      <point x="1249" y="740" type="line"/>
      <point x="1336" y="782"/>
      <point x="1444" y="813"/>
      <point x="1534" y="813" type="curve" smooth="yes"/>
      <point x="1637" y="813"/>
      <point x="1717" y="773"/>
      <point x="1717" y="665" type="curve" smooth="yes"/>
      <point x="1717" y="554.349"/>
      <point x="1649.78" y="484.342"/>
      <point x="1522.92" y="379.243" type="curve" smooth="yes"/>
      <point x="1446.85" y="316.223"/>
      <point x="1349.33" y="240.584"/>
      <point x="1232" y="136" type="curve"/>
    </contour>
    <contour>
      <point x="361" y="658" type="line"/>
      <point x="521" y="658" type="line"/>
      <point x="521" y="1593" type="line"/>
      <point x="391" y="1619" type="line"/>
      <point x="157" y="1524" type="line"/>
      <point x="191" y="1431" type="line"/>
      <point x="361" y="1503" type="line"/>
    </contour>
    <contour>
      <point x="489" y="-33" type="line"/>
      <point x="1528" y="1613" type="line"/>
      <point x="1415" y="1677" type="line"/>
      <point x="378" y="31" type="line"/>
    </contour>
  </outline>
</glyph>
<glyph name="threequarters" format="1">
  <advance width="2179"/>
  <unicode hex="00BE"/>
  <outline>
    <contour>
      <point x="444" y="608" type="curve" smooth="yes"/>
      <point x="608" y="608"/>
      <point x="785" y="691"/>
      <point x="785" y="880" type="curve" smooth="yes"/>
      <point x="785" y="1023"/>
      <point x="708" y="1124"/>
      <point x="547" y="1152" type="curve"/>
      <point x="688" y="1174"/>
      <point x="756" y="1280"/>
      <point x="756" y="1389" type="curve" smooth="yes"/>
      <point x="756" y="1578"/>
      <point x="581" y="1643"/>
      <point x="421" y="1643" type="curve" smooth="yes"/>
      <point x="334" y="1643"/>
      <point x="229" y="1616"/>
      <point x="153" y="1580" type="curve"/>
      <point x="194" y="1469" type="line"/>
      <point x="265" y="1505"/>
      <point x="339" y="1525"/>
      <point x="416" y="1525" type="curve" smooth="yes"/>
      <point x="527" y="1525"/>
      <point x="616" y="1497"/>
      <point x="616" y="1372" type="curve" smooth="yes"/>
      <point x="616" y="1243"/>
      <point x="500" y="1206"/>
      <point x="390" y="1208" type="curve"/>
      <point x="390" y="1102" type="line"/>
      <point x="516" y="1089"/>
      <point x="640" y="1037"/>
      <point x="640" y="894" type="curve" smooth="yes"/>
      <point x="640" y="771"/>
      <point x="552" y="723"/>
      <point x="437" y="723" type="curve" smooth="yes"/>
      <point x="352" y="723"/>
      <point x="248" y="751"/>
      <point x="173" y="794" type="curve"/>
      <point x="129" y="682" type="line"/>
      <point x="221" y="635"/>
      <point x="339" y="608"/>
    </contour>
    <contour>
      <point x="1888" y="-18" type="line"/>
      <point x="1888" y="254" type="line"/>
      <point x="2039" y="254" type="line"/>
      <point x="2039" y="365" type="line"/>
      <point x="1888" y="365" type="line"/>
      <point x="1888" y="1135" type="line"/>
      <point x="1771" y="1166" type="line"/>
      <point x="1204" y="364" type="line"/>
      <point x="1226" y="254" type="line"/>
      <point x="1754" y="254" type="line"/>
      <point x="1754" y="0" type="line"/>
    </contour>
    <contour>
      <point x="651" y="-33" type="line"/>
      <point x="1690" y="1613" type="line"/>
      <point x="1577" y="1677" type="line"/>
      <point x="540" y="31" type="line"/>
    </contour>
    <contour>
      <point x="1355" y="364" type="line"/>
      <point x="1754" y="938" type="line"/>
      <point x="1754" y="364" type="line"/>
    </contour>
  </outline>
</glyph>
<glyph name="AE" format="1">
  <advance width="1764"/>
  <unicode hex="00C6"/>
  <outline>
    <contour>
      <point x="-44" y="0" type="line"/>
      <point x="160" y="0" type="line"/>
      <point x="352" y="371" type="line"/>
      <point x="904" y="371" type="line"/>
      <point x="904" y="0" type="line"/>
      <point x="1743" y="0" type="line"/>
      <point x="1743" y="143" type="line"/>
      <point x="1069" y="143" type="line"/>
      <point x="1069" y="764" type="line"/>
      <point x="1672" y="764" type="line"/>
      <point x="1672" y="891" type="line"/>
      <point x="1067" y="891" type="line"/>
      <point x="1067" y="1436" type="line"/>
      <point x="1715" y="1436" type="line"/>
      <point x="1715" y="1579" type="line"/>
      <point x="777" y="1579" type="line"/>
    </contour>
    <contour>
      <point x="412" y="493" type="line"/>
      <point x="902" y="1459" type="line"/>
      <point x="902" y="493" type="line"/>
    </contour>
  </outline>
</glyph>
<glyph name="ae" format="1">
  <advance width="1788"/>
  <unicode hex="00E6"/>
  <outline>
    <contour>
      <point x="435" y="-23" type="curve" smooth="yes"/>
      <point x="609" y="-23"/>
      <point x="778" y="68"/>
      <point x="882" y="207" type="curve"/>
      <point x="974" y="45"/>
      <point x="1134" y="-23"/>
      <point x="1315" y="-23" type="curve" smooth="yes"/>
      <point x="1432" y="-23"/>
      <point x="1601" y="30"/>
      <point x="1695" y="99" type="curve"/>
      <point x="1633" y="244" type="line"/>
      <point x="1547" y="170"/>
      <point x="1441" y="127"/>
      <point x="1327" y="127" type="curve" smooth="yes"/>
      <point x="1046" y="127"/>
      <point x="981" y="322"/>
      <point x="981" y="567" type="curve"/>
      <point x="1741" y="567" type="line"/>
      <point x="1746" y="603"/>
      <point x="1749" y="640"/>
      <point x="1749" y="676" type="curve" smooth="yes"/>
      <point x="1749" y="958"/>
      <point x="1613" y="1190"/>
      <point x="1306" y="1190" type="curve" smooth="yes"/>
      <point x="1145" y="1190"/>
      <point x="984" y="1121"/>
      <point x="911" y="970" type="curve"/>
      <point x="856" y="1154"/>
      <point x="702" y="1190"/>
      <point x="529" y="1190" type="curve" smooth="yes"/>
      <point x="410" y="1190"/>
      <point x="201" y="1135"/>
      <point x="109" y="1057" type="curve"/>
      <point x="176" y="935" type="line"/>
      <point x="266" y="1001"/>
      <point x="429" y="1047"/>
      <point x="539" y="1047" type="curve" smooth="yes"/>
      <point x="780" y="1047"/>
      <point x="791" y="924"/>
      <point x="791" y="713" type="curve" smooth="yes"/>
      <point x="791" y="665" type="line"/>
      <point x="711" y="698"/>
      <point x="573" y="715"/>
      <point x="487" y="715" type="curve" smooth="yes"/>
      <point x="251" y="715"/>
      <point x="43" y="603"/>
      <point x="43" y="343" type="curve" smooth="yes"/>
      <point x="43" y="95"/>
      <point x="196" y="-23"/>
    </contour>
    <contour>
      <point x="482" y="119" type="curve" smooth="yes"/>
      <point x="314" y="119"/>
      <point x="234" y="183"/>
      <point x="234" y="356" type="curve" smooth="yes"/>
      <point x="234" y="556"/>
      <point x="384" y="590"/>
      <point x="556" y="590" type="curve" smooth="yes"/>
      <point x="635" y="590"/>
      <point x="713" y="582"/>
      <point x="791" y="569" type="curve"/>
      <point x="791" y="271" type="line"/>
      <point x="707" y="193"/>
      <point x="601" y="119"/>
    </contour>
    <contour>
      <point x="981" y="682" type="line"/>
      <point x="981" y="900.51"/>
      <point x="1083" y="1057"/>
      <point x="1307" y="1057" type="curve" smooth="yes"/>
      <point x="1511" y="1057"/>
      <point x="1581" y="902"/>
      <point x="1581" y="682" type="curve"/>
    </contour>
    <contour>
      <point x="917" y="1168" type="move" name="top"/>
    </contour>
  </outline>
</glyph>
<glyph name="divide" format="1">
  <advance width="1008"/>
  <unicode hex="00F7"/>
  <outline>
    <contour>
      <point x="497" y="215" type="curve" smooth="yes"/>
      <point x="562" y="215"/>
      <point x="605" y="268"/>
      <point x="605" y="330" type="curve" smooth="yes"/>
      <point x="605" y="392"/>
      <point x="562" y="445"/>
      <point x="497" y="445" type="curve" smooth="yes"/>
      <point x="434" y="445"/>
      <point x="385" y="392"/>
      <point x="385" y="330" type="curve" smooth="yes"/>
      <point x="385" y="267"/>
      <point x="433" y="215"/>
    </contour>
    <contour>
      <point x="160" y="508" type="line"/>
      <point x="842" y="508" type="line"/>
      <point x="842" y="639" type="line"/>
      <point x="160" y="639" type="line"/>
    </contour>
    <contour>
      <point x="499" y="700" type="curve" smooth="yes"/>
      <point x="564" y="700"/>
      <point x="607" y="753"/>
      <point x="607" y="815" type="curve" smooth="yes"/>
      <point x="607" y="877"/>
      <point x="564" y="930"/>
      <point x="499" y="930" type="curve" smooth="yes"/>
      <point x="436" y="930"/>
      <point x="387" y="877"/>
      <point x="387" y="815" type="curve" smooth="yes"/>
      <point x="387" y="752"/>
      <point x="435" y="700"/>
    </contour>
  </outline>
</glyph>
<glyph name="thorn" format="1">
  <advance width="1284"/>
  <unicode hex="00FE"/>
  <outline>
    <contour>
      <point x="146" y="-487" type="line"/>
      <point x="332" y="-465" type="line"/>
      <point x="332" y="117" type="line"/>
      <point x="418" y="10"/>
      <point x="560" y="-20"/>
      <point x="691" y="-20" type="curve" smooth="yes"/>
      <point x="1028" y="-20"/>
      <point x="1160" y="291"/>
      <point x="1160" y="584" type="curve" smooth="yes"/>
      <point x="1160" y="880"/>
      <point x="1032" y="1190"/>
      <point x="691" y="1190" type="curve" smooth="yes"/>
      <point x="550" y="1190"/>
      <point x="416" y="1113"/>
      <point x="330" y="1004" type="curve"/>
      <point x="330" y="1565" type="line"/>
      <point x="146" y="1565" type="line"/>
    </contour>
    <contour>
      <point x="699" y="123" type="curve" smooth="yes"/>
      <point x="580" y="123"/>
      <point x="431" y="165"/>
      <point x="339" y="244" type="curve"/>
      <point x="355" y="890" type="line"/>
      <point x="441" y="976"/>
      <point x="568" y="1047"/>
      <point x="691" y="1047" type="curve" smooth="yes"/>
      <point x="947" y="1047"/>
      <point x="978" y="735"/>
      <point x="978" y="543" type="curve" smooth="yes"/>
      <point x="978" y="366"/>
      <point x="916" y="123"/>
    </contour>
  </outline>
</glyph>
<glyph name="Dcroat" format="1">
  <advance width="1572"/>
  <unicode hex="0110"/>
  <outline>
    <contour>
      <point x="393" y="143" type="line"/>
      <point x="393" y="764" type="line"/>
      <point x="627" y="764" type="line"/>
      <point x="627" y="895" type="line"/>
      <point x="393" y="895" type="line"/>
      <point x="393" y="1436" type="line"/>
      <point x="752" y="1436" type="line" smooth="yes"/>
      <point x="1141" y="1436"/>
      <point x="1210" y="1111"/>
      <point x="1210" y="789" type="curve" smooth="yes"/>
      <point x="1210" y="465"/>
      <point x="1145" y="143"/>
      <point x="752" y="143" type="curve" smooth="yes"/>
    </contour>
    <contour>
      <point x="199" y="0" type="line"/>
      <point x="752" y="0" type="line" smooth="yes"/>
      <point x="1248" y="0"/>
      <point x="1411" y="338"/>
      <point x="1411" y="788" type="curve" smooth="yes"/>
      <point x="1411" y="1231"/>
      <point x="1245" y="1579"/>
      <point x="752" y="1579" type="curve" smooth="yes"/>
      <point x="199" y="1579" type="line"/>
      <point x="199" y="895" type="line"/>
      <point x="37" y="895" type="line"/>
      <point x="37" y="764" type="line"/>
      <point x="199" y="764" type="line"/>
    </contour>
  </outline>
</glyph>
<glyph name="Hbar" format="1">
  <advance width="1584"/>
  <unicode hex="0126"/>
  <outline>
    <contour>
      <point x="33" y="1258" type="line"/>
      <point x="1545" y="1258" type="line"/>
      <point x="1545" y="1368" type="line"/>
      <point x="33" y="1368" type="line"/>
    </contour>
    <component base="H"/>
  </outline>
</glyph>
<glyph name="kgreenlandic" format="1">
  <advance width="1212"/>
  <unicode hex="0138"/>
  <outline>
    <contour>
      <point x="153" y="0" type="line"/>
      <point x="343" y="0" type="line"/>
      <point x="343" y="459" type="line"/>
      <point x="459" y="555" type="line"/>
      <point x="939" y="0" type="line"/>
      <point x="1160" y="0" type="line"/>
      <point x="574" y="648" type="line"/>
      <point x="1127" y="1168" type="line"/>
      <point x="902" y="1168" type="line"/>
      <point x="343" y="627" type="line"/>
      <point x="343" y="1168" type="line"/>
      <point x="153" y="1168" type="line"/>
    </contour>
  </outline>
</glyph>
<glyph name="Lslash" format="1">
  <advance width="1212"/>
  <unicode hex="0141"/>
  <outline>
    <contour>
      <point x="3" y="462" type="line"/>
      <point x="662" y="902" type="line"/>
      <point x="662" y="1063" type="line"/>
      <point x="3" y="623" type="line"/>
    </contour>
    <component base="L"/>
  </outline>
</glyph>
<glyph name="lslash" format="1">
  <advance width="571"/>
  <unicode hex="0142"/>
  <outline>
    <contour>
      <point x="-15" y="572" type="line"/>
      <point x="556" y="912" type="line"/>
      <point x="556" y="1042" type="line"/>
      <point x="-15" y="692" type="line"/>
    </contour>
    <component base="l"/>
  </outline>
</glyph>
<glyph name="eng" format="1">
  <advance width="1275"/>
  <unicode hex="014B"/>
  <outline>
    <contour>
      <point x="756" y="-463" type="line"/>
      <point x="994" y="-405"/>
      <point x="1125" y="-298"/>
      <point x="1125" y="44" type="curve" smooth="yes"/>
      <point x="1125" y="269" type="line"/>
      <point x="939" y="269" type="line"/>
      <point x="939" y="66" type="line" smooth="yes"/>
      <point x="939" y="-194"/>
      <point x="920" y="-239"/>
      <point x="706" y="-324" type="curve"/>
    </contour>
    <component base="n"/>
  </outline>
</glyph>
<glyph name="OE" format="1">
  <advance width="2196"/>
  <unicode hex="0152"/>
  <outline>
    <contour>
      <point x="788" y="-41" type="curve" smooth="yes"/>
      <point x="1005" y="-41"/>
      <point x="1150" y="31"/>
      <point x="1244" y="149" type="curve"/>
      <point x="1244" y="0" type="line"/>
      <point x="2227" y="0" type="line"/>
      <point x="2227" y="143" type="line"/>
      <point x="1438" y="143" type="line"/>
      <point x="1438" y="776" type="line"/>
      <point x="2116" y="776" type="line"/>
      <point x="2116" y="891" type="line"/>
      <point x="1438" y="891" type="line"/>
      <point x="1438" y="1436" type="line"/>
      <point x="2214" y="1436" type="line"/>
      <point x="2214" y="1579" type="line"/>
      <point x="1244" y="1579" type="line"/>
      <point x="1244" y="1418" type="line"/>
      <point x="1148" y="1538"/>
      <point x="999" y="1610"/>
      <point x="774" y="1610" type="curve" smooth="yes"/>
      <point x="289" y="1610"/>
      <point x="134" y="1214"/>
      <point x="134" y="784" type="curve" smooth="yes"/>
      <point x="134" y="335"/>
      <point x="290" y="-41"/>
    </contour>
    <contour>
      <point x="799" y="111" type="curve" smooth="yes"/>
      <point x="405" y="111"/>
      <point x="334" y="458"/>
      <point x="334" y="784" type="curve" smooth="yes"/>
      <point x="334" y="1101"/>
      <point x="397" y="1458"/>
      <point x="790" y="1458" type="curve" smooth="yes"/>
      <point x="1180" y="1458"/>
      <point x="1244" y="1103"/>
      <point x="1244" y="784" type="curve" smooth="yes"/>
      <point x="1244" y="480"/>
      <point x="1180" y="111"/>
    </contour>
  </outline>
</glyph>
<glyph name="oe" format="1">
  <advance width="1944"/>
  <unicode hex="0153"/>
  <outline>
    <contour>
      <point x="607" y="-20" type="curve" smooth="yes"/>
      <point x="814" y="-20"/>
      <point x="959" y="69"/>
      <point x="1044" y="208" type="curve"/>
      <point x="1127" y="69"/>
      <point x="1270" y="-20"/>
      <point x="1479" y="-20" type="curve" smooth="yes"/>
      <point x="1601" y="-20"/>
      <point x="1760" y="30"/>
      <point x="1859" y="99" type="curve"/>
      <point x="1797" y="244" type="line"/>
      <point x="1712" y="165"/>
      <point x="1604" y="117"/>
      <point x="1491" y="117" type="curve" smooth="yes"/>
      <point x="1225" y="117"/>
      <point x="1144" y="326"/>
      <point x="1142" y="563" type="curve"/>
      <point x="1902" y="563" type="line"/>
      <point x="1908" y="600"/>
      <point x="1913" y="638"/>
      <point x="1913" y="676" type="curve" smooth="yes"/>
      <point x="1913" y="957"/>
      <point x="1776" y="1190"/>
      <point x="1470" y="1190" type="curve" smooth="yes"/>
      <point x="1269" y="1190"/>
      <point x="1130" y="1095"/>
      <point x="1047" y="953" type="curve"/>
      <point x="962" y="1097"/>
      <point x="817" y="1190"/>
      <point x="607" y="1190" type="curve" smooth="yes"/>
      <point x="248" y="1190"/>
      <point x="77" y="914"/>
      <point x="77" y="582" type="curve" smooth="yes"/>
      <point x="77" y="249"/>
      <point x="248" y="-20"/>
    </contour>
    <contour>
      <point x="607" y="117" type="curve" smooth="yes"/>
      <point x="337" y="117"/>
      <point x="259" y="352"/>
      <point x="259" y="582" type="curve" smooth="yes"/>
      <point x="259" y="812"/>
      <point x="336" y="1051"/>
      <point x="607" y="1051" type="curve" smooth="yes"/>
      <point x="878" y="1051"/>
      <point x="955" y="812"/>
      <point x="955" y="582" type="curve" smooth="yes"/>
      <point x="955" y="351"/>
      <point x="879" y="117"/>
    </contour>
    <contour>
      <point x="1146" y="682" type="line"/>
      <point x="1163" y="882"/>
      <point x="1243" y="1057"/>
      <point x="1471" y="1057" type="curve" smooth="yes"/>
      <point x="1676" y="1057"/>
      <point x="1745" y="898"/>
      <point x="1745" y="682" type="curve"/>
    </contour>
  </outline>
</glyph>
<glyph name="florin" format="1">
  <advance width="1128"/>
  <unicode hex="0192"/>
  <outline>
    <contour>
      <point x="325" y="0" type="line"/>
      <point x="510" y="0" type="line"/>
      <point x="642" y="1034" type="line"/>
      <point x="990" y="1034" type="line"/>
      <point x="1001" y="1139" type="line"/>
      <point x="653" y="1139" type="line"/>
      <point x="685" y="1374"/>
      <point x="734" y="1472"/>
      <point x="867" y="1472" type="curve" smooth="yes"/>
      <point x="912" y="1472"/>
      <point x="967" y="1461"/>
      <point x="1035" y="1439" type="curve"/>
      <point x="1081" y="1567" type="line"/>
      <point x="988" y="1602"/>
      <point x="902" y="1623"/>
      <point x="826" y="1623" type="curve" smooth="yes"/>
      <point x="634" y="1623"/>
      <point x="504" y="1492"/>
      <point x="463" y="1139" type="curve"/>
      <point x="268" y="1139" type="line"/>
      <point x="257" y="1034" type="line"/>
      <point x="452" y="1034" type="line"/>
    </contour>
  </outline>
</glyph>
<glyph name="uni0237" format="1">
  <advance width="924"/>
  <unicode hex="0237"/>
  <outline>
    <contour>
      <point x="346" y="-373" type="line"/>
      <point x="584" y="-315"/>
      <point x="677" y="-68"/>
      <point x="677" y="154" type="curve" smooth="yes"/>
      <point x="677" y="1169" type="line"/>
      <point x="487" y="1169" type="line"/>
      <point x="487" y="176" type="line" smooth="yes"/>
      <point x="487" y="-14"/>
      <point x="473" y="-147"/>
      <point x="299" y="-258" type="curve"/>
    </contour>
  </outline>
</glyph>
<glyph name="circumflex" format="1">
  <advance width="936"/>
  <unicode hex="02C6"/>
  <outline>
    <contour>
      <point x="115" y="1361" type="line"/>
      <point x="273" y="1361" type="line"/>
      <point x="455" y="1659" type="line"/>
      <point x="637" y="1361" type="line"/>
      <point x="795" y="1361" type="line"/>
      <point x="523" y="1804" type="line"/>
      <point x="387" y="1804" type="line"/>
    </contour>
    <contour>
      <point x="458" y="1168" type="move" name="_top"/>
    </contour>
  </outline>
</glyph>
<glyph name="breve" format="1">
  <advance width="876"/>
  <unicode hex="02D8"/>
  <outline>
    <contour>
      <point x="440" y="889" type="curve" smooth="yes"/>
      <point x="594" y="889"/>
      <point x="706" y="1002"/>
      <point x="706" y="1149" type="curve"/>
      <point x="579" y="1149" type="line"/>
      <point x="579" y="1061"/>
      <point x="522" y="990"/>
      <point x="438" y="990" type="curve" smooth="yes"/>
      <point x="355" y="990"/>
      <point x="293" y="1063"/>
      <point x="293" y="1149" type="curve"/>
      <point x="166" y="1149" type="line"/>
      <point x="166" y="997"/>
      <point x="284" y="889"/>
    </contour>
  </outline>
</glyph>
<glyph name="ogonek" format="1">
  <advance width="876"/>
  <unicode hex="02DB"/>
  <outline>
    <contour>
      <point x="531" y="-528" type="curve" smooth="yes"/>
      <point x="552" y="-528"/>
      <point x="588" y="-526"/>
      <point x="614" y="-521" type="curve"/>
      <point x="614" y="-397" type="line"/>
      <point x="591" y="-401"/>
      <point x="569" y="-403"/>
      <point x="550" y="-403" type="curve" smooth="yes"/>
      <point x="449" y="-403"/>
      <point x="396" y="-348"/>
      <point x="396" y="-271" type="curve" smooth="yes"/>
      <point x="396" y="-209"/>
      <point x="433" y="-104"/>
      <point x="571" y="0" type="curve"/>
      <point x="449" y="0" type="line"/>
      <point x="328" y="-84"/>
      <point x="266" y="-202"/>
      <point x="266" y="-305" type="curve" smooth="yes"/>
      <point x="266" y="-427"/>
      <point x="353" y="-528"/>
    </contour>
    <contour>
      <point x="509" y="0" type="move" name="_ogonek"/>
    </contour>
  </outline>
</glyph>
<glyph name="tilde" format="1">
  <advance width="1044"/>
  <unicode hex="02DC"/>
  <outline>
    <contour>
      <point x="193" y="1323" type="curve"/>
      <point x="268" y="1323" type="line"/>
      <point x="268" y="1511"/>
      <point x="548" y="1324"/>
      <point x="703" y="1324" type="curve" smooth="yes"/>
      <point x="816" y="1324"/>
      <point x="871" y="1391"/>
      <point x="871" y="1552" type="curve"/>
      <point x="797" y="1552" type="line"/>
      <point x="797" y="1380"/>
      <point x="511" y="1560"/>
      <point x="371" y="1560" type="curve" smooth="yes"/>
      <point x="254" y="1560"/>
      <point x="193" y="1496"/>
    </contour>
    <contour>
      <point x="538" y="1168" type="move" name="_top"/>
    </contour>
  </outline>
</glyph>
<glyph name="hungarumlaut" format="1">
  <advance width="996"/>
  <unicode hex="02DD"/>
  <outline>
    <contour>
      <point x="94" y="1378" type="line"/>
      <point x="544" y="1777" type="line"/>
      <point x="393" y="1891" type="line"/>
      <point x="48" y="1420" type="line"/>
    </contour>
    <contour>
      <point x="424" y="1373" type="line"/>
      <point x="930" y="1696" type="line"/>
      <point x="799" y="1833" type="line"/>
      <point x="385" y="1421" type="line"/>
    </contour>
    <contour>
      <point x="260" y="1168" type="move" name="_top"/>
    </contour>
  </outline>
</glyph>
<glyph name="uni0307" format="1">
  <advance width="660"/>
  <unicode hex="0307"/>
  <outline>
    <contour>
      <point x="327" y="1348" type="curve" smooth="yes"/>
      <point x="393" y="1348"/>
      <point x="435" y="1392"/>
      <point x="435" y="1463" type="curve" smooth="yes"/>
      <point x="435" y="1534"/>
      <point x="393" y="1578"/>
      <point x="327" y="1578" type="curve" smooth="yes"/>
      <point x="258" y="1578"/>
      <point x="215" y="1534"/>
      <point x="215" y="1463" type="curve" smooth="yes"/>
      <point x="215" y="1392"/>
      <point x="258" y="1348"/>
    </contour>
    <contour>
      <point x="326" y="1168" type="move" name="_top"/>
    </contour>
  </outline>
</glyph>
<glyph name="uni030F" format="1">
  <advance width="960"/>
  <unicode hex="030F"/>
  <outline>
    <contour>
      <point x="554" y="1373" type="line"/>
      <point x="593" y="1421" type="line"/>
      <point x="179" y="1833" type="line"/>
      <point x="48" y="1696" type="line"/>
    </contour>
    <contour>
      <point x="884" y="1378" type="line"/>
      <point x="930" y="1420" type="line"/>
      <point x="585" y="1891" type="line"/>
      <point x="434" y="1777" type="line"/>
    </contour>
    <contour>
      <point x="718" y="1168" type="move" name="_top"/>
    </contour>
  </outline>
</glyph>
<glyph name="uni0311" format="1">
  <advance width="852"/>
  <unicode hex="0311"/>
  <outline>
    <contour>
      <point x="146" y="1320" type="curve"/>
      <point x="274" y="1320" type="line"/>
      <point x="274" y="1397"/>
      <point x="336" y="1446"/>
      <point x="436" y="1446" type="curve" smooth="yes"/>
      <point x="536" y="1446"/>
      <point x="598" y="1397"/>
      <point x="598" y="1320" type="curve"/>
      <point x="726" y="1320" type="line"/>
      <point x="726" y="1469"/>
      <point x="614" y="1562"/>
      <point x="435" y="1562" type="curve" smooth="yes"/>
      <point x="257" y="1562"/>
      <point x="146" y="1469"/>
    </contour>
    <contour>
      <point x="443" y="1168" type="move" name="_top"/>
    </contour>
  </outline>
</glyph>
<glyph name="uni0326" format="1">
  <advance width="720"/>
  <unicode hex="0326"/>
  <outline>
    <contour>
      <point x="315" y="-609" type="line"/>
      <point x="461" y="-567"/>
      <point x="524" y="-466"/>
      <point x="524" y="-312" type="curve" smooth="yes"/>
      <point x="524" y="-113" type="line"/>
      <point x="313" y="-113" type="line"/>
      <point x="313" y="-356" type="line"/>
      <point x="414" y="-356" type="line"/>
      <point x="415" y="-451"/>
      <point x="363" y="-516"/>
      <point x="278" y="-545" type="curve"/>
    </contour>
    <contour>
      <point x="423" y="0" type="move" name="_bot"/>
    </contour>
  </outline>
</glyph>
<glyph name="Sigma" format="1">
  <advance width="1366"/>
  <unicode hex="03A3"/>
  <outline>
    <contour>
      <point x="161" y="0" type="line"/>
      <point x="1254" y="0" type="line"/>
      <point x="1254" y="150" type="line"/>
      <point x="341" y="150" type="line"/>
      <point x="1048" y="748" type="line"/>
      <point x="1048" y="837" type="line"/>
      <point x="341" y="1435" type="line"/>
      <point x="1230" y="1435" type="line"/>
      <point x="1230" y="1578" type="line"/>
      <point x="161" y="1578" type="line"/>
      <point x="161" y="1377" type="line"/>
      <point x="850" y="789" type="line"/>
      <point x="161" y="181" type="line"/>
    </contour>
  </outline>
</glyph>
<glyph name="pi" format="1">
  <advance width="1756"/>
  <unicode hex="03C0"/>
  <outline>
    <contour>
      <point x="1276" y="-12" type="curve" smooth="yes"/>
      <point x="1356" y="-12"/>
      <point x="1426" y="13"/>
      <point x="1466" y="50" type="curve"/>
      <point x="1466" y="174" type="line"/>
      <point x="1435" y="162"/>
      <point x="1374" y="137"/>
      <point x="1329" y="137" type="curve" smooth="yes"/>
      <point x="1233" y="137"/>
      <point x="1186" y="243"/>
      <point x="1186" y="475" type="curve" smooth="yes"/>
      <point x="1186" y="607"/>
      <point x="1202" y="784"/>
      <point x="1233" y="1006" type="curve"/>
      <point x="1495" y="1006" type="line"/>
      <point x="1495" y="1168" type="line"/>
      <point x="526" y="1168" type="line" smooth="yes"/>
      <point x="268" y="1168"/>
      <point x="192" y="1079"/>
      <point x="192" y="840" type="curve"/>
      <point x="288" y="840" type="line"/>
      <point x="301" y="944"/>
      <point x="346" y="1006"/>
      <point x="439" y="1006" type="curve" smooth="yes"/>
      <point x="617" y="1006" type="line"/>
      <point x="499" y="420" type="line" smooth="yes"/>
      <point x="451" y="184"/>
      <point x="327" y="114"/>
      <point x="195" y="114" type="curve"/>
      <point x="195" y="5" type="line"/>
      <point x="561" y="5"/>
      <point x="617" y="120"/>
      <point x="647" y="361" type="curve" smooth="yes"/>
      <point x="728" y="1006" type="line"/>
      <point x="1110" y="1006" type="line"/>
      <point x="1072" y="732"/>
      <point x="1029" y="490"/>
      <point x="1029" y="313" type="curve" smooth="yes"/>
      <point x="1029" y="108"/>
      <point x="1086" y="-12"/>
    </contour>
  </outline>
</glyph>
<glyph name="endash" format="1">
  <advance width="852"/>
  <unicode hex="2013"/>
  <outline>
    <contour>
      <point x="187" y="555" type="line"/>
      <point x="657" y="555" type="line"/>
      <point x="657" y="699" type="line"/>
      <point x="187" y="699" type="line"/>
    </contour>
  </outline>
</glyph>
<glyph name="quotedblleft" format="1">
  <advance width="984"/>
  <unicode hex="201C"/>
  <outline>
    <contour>
      <point x="160" y="1063" type="line"/>
      <point x="441" y="1063" type="line"/>
      <point x="441" y="1356" type="line"/>
      <point x="310" y="1356" type="line"/>
      <point x="309" y="1452"/>
      <point x="354" y="1486"/>
      <point x="440" y="1515" type="curve"/>
      <point x="389" y="1609" type="line"/>
      <point x="243" y="1567"/>
      <point x="160" y="1466"/>
      <point x="160" y="1312" type="curve" smooth="yes"/>
    </contour>
    <contour>
      <point x="529" y="1063" type="line"/>
      <point x="810" y="1063" type="line"/>
      <point x="810" y="1356" type="line"/>
      <point x="679" y="1356" type="line"/>
      <point x="678" y="1452"/>
      <point x="723" y="1486"/>
      <point x="809" y="1515" type="curve"/>
      <point x="758" y="1609" type="line"/>
      <point x="612" y="1567"/>
      <point x="529" y="1466"/>
      <point x="529" y="1312" type="curve" smooth="yes"/>
    </contour>
  </outline>
</glyph>
<glyph name="dagger" format="1">
  <advance width="1142"/>
  <unicode hex="2020"/>
  <outline>
    <contour>
      <point x="482" y="-200" type="line"/>
      <point x="661" y="-200" type="line"/>
      <point x="661" y="1020" type="line"/>
      <point x="988" y="1020" type="line"/>
      <point x="988" y="1161" type="line"/>
      <point x="661" y="1161" type="line"/>
      <point x="661" y="1578" type="line"/>
      <point x="482" y="1578" type="line"/>
      <point x="482" y="1161" type="line"/>
      <point x="154" y="1161" type="line"/>
      <point x="154" y="1020" type="line"/>
      <point x="482" y="1020" type="line"/>
    </contour>
  </outline>
</glyph>
<glyph name="guilsinglright" format="1">
  <advance width="936"/>
  <unicode hex="203A"/>
  <outline>
    <contour>
      <point x="196" y="117" type="line"/>
      <point x="804" y="499" type="line"/>
      <point x="804" y="646" type="line"/>
      <point x="196" y="1029" type="line"/>
      <point x="196" y="842" type="line"/>
      <point x="642" y="577" type="line"/>
      <point x="196" y="306" type="line"/>
    </contour>
  </outline>
</glyph>
<glyph name="fraction" format="1">
  <advance width="917"/>
  <unicode hex="2044"/>
  <outline>
    <contour>
      <point x="120" y="-18" type="line"/>
      <point x="917" y="1596" type="line"/>
      <point x="795" y="1596" type="line"/>
      <point x="0" y="-18" type="line"/>
    </contour>
  </outline>
</glyph>
<glyph name="uni2074" format="1">
  <advance width="1020"/>
  <unicode hex="2074"/>
  <outline>
    <contour>
      <point x="652" y="442" type="line"/>
      <point x="797" y="466" type="line"/>
      <point x="797" y="726" type="line"/>
      <point x="948" y="726" type="line"/>
      <point x="948" y="838" type="line"/>
      <point x="797" y="838" type="line"/>
      <point x="797" y="1608" type="line"/>
      <point x="669" y="1638" type="line"/>
      <point x="105" y="836" type="line"/>
      <point x="127" y="726" type="line"/>
      <point x="652" y="726" type="line"/>
    </contour>
    <contour>
      <point x="264" y="836" type="line"/>
      <point x="396" y="1021"/>
      <point x="525" y="1208"/>
      <point x="652" y="1396" type="curve"/>
      <point x="652" y="836" type="line"/>
    </contour>
  </outline>
</glyph>
<glyph name="Euro" format="1">
  <advance width="1392"/>
  <unicode hex="20AC"/>
  <outline>
    <contour>
      <point x="-33" y="587" type="line"/>
      <point x="859" y="587" type="line"/>
      <point x="859" y="703" type="line"/>
      <point x="293" y="703" type="line"/>
      <point x="293" y="931" type="line"/>
      <point x="859" y="931" type="line"/>
      <point x="859" y="1047" type="line"/>
      <point x="-33" y="1047" type="line"/>
      <point x="-33" y="931" type="line"/>
      <point x="216" y="931" type="line"/>
      <point x="216" y="703" type="line"/>
      <point x="-33" y="703" type="line"/>
    </contour>
    <component base="C"/>
  </outline>
</glyph>
<glyph name="afii61289" format="1">
  <advance width="876"/>
  <unicode hex="2113"/>
  <outline>
    <contour>
      <point x="599" y="-18" type="curve"/>
      <point x="669" y="-18"/>
      <point x="747" y="-5"/>
      <point x="820" y="21" type="curve"/>
      <point x="793" y="139" type="line"/>
      <point x="730" y="118"/>
      <point x="667" y="105"/>
      <point x="610" y="105" type="curve"/>
      <point x="513" y="105"/>
      <point x="444" y="142"/>
      <point x="444" y="246" type="curve"/>
      <point x="444" y="1032" type="line"/>
      <point x="620" y="1200" type="line"/>
      <point x="694" y="1269"/>
      <point x="736" y="1321"/>
      <point x="736" y="1393" type="curve"/>
      <point x="736" y="1511"/>
      <point x="635" y="1585"/>
      <point x="522" y="1585" type="curve"/>
      <point x="420" y="1585"/>
      <point x="294" y="1521"/>
      <point x="294" y="1338" type="curve"/>
      <point x="293" y="1064" type="line"/>
      <point x="54" y="834" type="line"/>
      <point x="54" y="668" type="line"/>
      <point x="292" y="898" type="line"/>
      <point x="292" y="245" type="line"/>
      <point x="292" y="60"/>
      <point x="431" y="-18"/>
    </contour>
    <contour>
      <point x="444" y="1198" type="line"/>
      <point x="444" y="1342" type="line"/>
      <point x="444" y="1420"/>
      <point x="483" y="1450"/>
      <point x="521" y="1450" type="curve"/>
      <point x="556" y="1450"/>
      <point x="588" y="1426"/>
      <point x="588" y="1381" type="curve"/>
      <point x="588" y="1350"/>
      <point x="567" y="1318"/>
      <point x="531" y="1283" type="curve"/>
    </contour>
  </outline>
</glyph>
<glyph name="Omega" format="1">
  <advance width="1756"/>
  <unicode hex="2126"/>
  <outline>
    <contour>
      <point x="215" y="0" type="line"/>
      <point x="791" y="0" type="line"/>
      <point x="790" y="124" type="line"/>
      <point x="552" y="278"/>
      <point x="391" y="549"/>
      <point x="391" y="859" type="curve" smooth="yes"/>
      <point x="391" y="1239"/>
      <point x="635" y="1493"/>
      <point x="989" y="1493" type="curve" smooth="yes"/>
      <point x="1377" y="1493"/>
      <point x="1574" y="1197"/>
      <point x="1574" y="854" type="curve" smooth="yes"/>
      <point x="1574" y="541"/>
      <point x="1403" y="279"/>
      <point x="1170" y="124" type="curve"/>
      <point x="1171" y="0" type="line"/>
      <point x="1741" y="0" type="line"/>
      <point x="1755" y="132" type="line"/>
      <point x="1353" y="132" type="line"/>
      <point x="1552" y="284"/>
      <point x="1750" y="543"/>
      <point x="1750" y="875" type="curve" smooth="yes"/>
      <point x="1750" y="1308"/>
      <point x="1459" y="1638"/>
      <point x="995" y="1638" type="curve" smooth="yes"/>
      <point x="548" y="1638"/>
      <point x="215" y="1340"/>
      <point x="215" y="879" type="curve" smooth="yes"/>
      <point x="215" y="554"/>
      <point x="378" y="288"/>
      <point x="605" y="132" type="curve"/>
      <point x="198" y="132" type="line"/>
    </contour>
  </outline>
</glyph>
<glyph name="infinity" format="1">
  <advance width="1756"/>
  <unicode hex="221E"/>
  <outline>
    <contour>
      <point x="426" y="317" type="curve" smooth="yes"/>
      <point x="599" y="317"/>
      <point x="746" y="426"/>
      <point x="881" y="543" type="curve"/>
      <point x="1016" y="426"/>
      <point x="1163" y="317"/>
      <point x="1336" y="317" type="curve" smooth="yes"/>
      <point x="1492" y="317"/>
      <point x="1646" y="399"/>
      <point x="1638" y="629" type="curve"/>
      <point x="1646" y="859"/>
      <point x="1492" y="941"/>
      <point x="1336" y="941" type="curve" smooth="yes"/>
      <point x="1163" y="941"/>
      <point x="1016" y="832"/>
      <point x="881" y="715" type="curve"/>
      <point x="746" y="832"/>
      <point x="599" y="941"/>
      <point x="426" y="941" type="curve" smooth="yes"/>
      <point x="270" y="941"/>
      <point x="116" y="859"/>
      <point x="124" y="629" type="curve"/>
      <point x="116" y="399"/>
      <point x="270" y="317"/>
    </contour>
    <contour>
      <point x="437" y="438" type="curve" smooth="yes"/>
      <point x="348" y="438"/>
      <point x="263" y="466"/>
      <point x="269" y="629" type="curve"/>
      <point x="263" y="792"/>
      <point x="348" y="820"/>
      <point x="437" y="820" type="curve" smooth="yes"/>
      <point x="554" y="820"/>
      <point x="665" y="732"/>
      <point x="783" y="629" type="curve"/>
      <point x="665" y="526"/>
      <point x="554" y="438"/>
    </contour>
    <contour>
      <point x="1325" y="438" type="curve" smooth="yes"/>
      <point x="1208" y="438"/>
      <point x="1097" y="526"/>
      <point x="979" y="629" type="curve"/>
      <point x="1097" y="732"/>
      <point x="1208" y="820"/>
      <point x="1325" y="820" type="curve" smooth="yes"/>
      <point x="1414" y="820"/>
      <point x="1499" y="792"/>
      <point x="1493" y="629" type="curve"/>
      <point x="1499" y="466"/>
      <point x="1414" y="438"/>
    </contour>
  </outline>
</glyph>
<glyph name="integral" format="1">
  <advance width="1311"/>
  <unicode hex="222B"/>
  <outline>
    <contour>
      <point x="360" y="-326" type="curve" smooth="yes"/>
      <point x="551" y="-326"/>
      <point x="648" y="-158"/>
      <point x="692" y="210" type="curve" smooth="yes"/>
      <point x="801" y="1139" type="line" smooth="yes"/>
      <point x="833" y="1374"/>
      <point x="882" y="1472"/>
      <point x="1015" y="1472" type="curve" smooth="yes"/>
      <point x="1060" y="1472"/>
      <point x="1115" y="1461"/>
      <point x="1183" y="1439" type="curve"/>
      <point x="1229" y="1567" type="line"/>
      <point x="1136" y="1602"/>
      <point x="1050" y="1623"/>
      <point x="974" y="1623" type="curve" smooth="yes"/>
      <point x="782" y="1623"/>
      <point x="652" y="1492"/>
      <point x="611" y="1139" type="curve" smooth="yes"/>
      <point x="507" y="232" type="line" smooth="yes"/>
      <point x="472" y="-66"/>
      <point x="433" y="-181"/>
      <point x="320" y="-181" type="curve" smooth="yes"/>
      <point x="277" y="-181"/>
      <point x="222" y="-164"/>
      <point x="152" y="-133" type="curve"/>
      <point x="106" y="-258" type="line"/>
      <point x="205" y="-303"/>
      <point x="289" y="-326"/>
    </contour>
  </outline>
</glyph>
<glyph name="notequal" format="1">
  <advance width="912"/>
  <unicode hex="2260"/>
  <outline>
    <contour>
      <point x="381" y="98" type="line"/>
      <point x="450" y="280" type="line"/>
      <point x="748" y="280" type="line"/>
      <point x="748" y="411" type="line"/>
      <point x="494" y="411" type="line"/>
      <point x="527" y="508" type="line"/>
      <point x="748" y="508" type="line"/>
      <point x="748" y="639" type="line"/>
      <point x="571" y="639" type="line"/>
      <point x="621" y="788" type="line"/>
      <point x="527" y="827" type="line"/>
      <point x="461" y="639" type="line"/>
      <point x="160" y="639" type="line"/>
      <point x="160" y="508" type="line"/>
      <point x="416" y="508" type="line"/>
      <point x="383" y="411" type="line"/>
      <point x="160" y="411" type="line"/>
      <point x="160" y="280" type="line"/>
      <point x="339" y="280" type="line"/>
      <point x="287" y="137" type="line"/>
    </contour>
  </outline>
</glyph>
<glyph name="greaterequal" format="1">
  <advance width="1454"/>
  <unicode hex="2265"/>
  <outline>
    <contour>
      <point x="289" y="360" type="line"/>
      <point x="1244" y="863" type="line"/>
      <point x="289" y="1366" type="line"/>
      <point x="210" y="1246" type="line"/>
      <point x="938" y="863" type="line"/>
      <point x="210" y="480" type="line"/>
    </contour>
    <contour>
      <point x="228" y="0" type="line"/>
      <point x="1136" y="0" type="line"/>
      <point x="1136" y="143" type="line"/>
      <point x="228" y="143" type="line"/>
    </contour>
  </outline>
</glyph>
<glyph name="lozenge" format="1">
  <advance width="1423"/>
  <unicode hex="25CA"/>
  <outline>
    <contour>
      <point x="711" y="137" type="line"/>
      <point x="304" y="583" type="line"/>
      <point x="712" y="1031" type="line"/>
      <point x="1119" y="585" type="line"/>
    </contour>
    <contour>
      <point x="711" y="-55" type="line"/>
      <point x="1311" y="585" type="line"/>
      <point x="712" y="1223" type="line"/>
      <point x="112" y="583" type="line"/>
    </contour>
  </outline>
</glyph>
<glyph name="uniFB01" format="1">
  <advance width="1236"/>
  <unicode hex="FB01"/>
  <outline>
    <contour>
      <point x="203" y="0" type="line"/>
      <point x="393" y="0" type="line"/>
      <point x="393" y="1046" type="line"/>
      <point x="892" y="1046" type="line"/>
      <point x="892" y="0" type="line"/>
      <point x="1074" y="0" type="line"/>
      <point x="1074" y="1168" type="line"/>
      <point x="393" y="1168" type="line"/>
      <point x="393" y="1252" type="line" smooth="yes"/>
      <point x="393" y="1485"/>
      <point x="504" y="1508"/>
      <point x="577" y="1509" type="curve" smooth="yes"/>
      <point x="616" y="1510"/>
      <point x="684" y="1493"/>
      <point x="734" y="1474" type="curve"/>
      <point x="773" y="1599" type="line"/>
      <point x="702" y="1628"/>
      <point x="627" y="1646"/>
      <point x="557" y="1648" type="curve" smooth="yes"/>
      <point x="399" y="1653"/>
      <point x="203" y="1569"/>
      <point x="203" y="1260" type="curve" smooth="yes"/>
      <point x="203" y="1168" type="line"/>
      <point x="3" y="1168" type="line"/>
      <point x="3" y="1046" type="line"/>
      <point x="203" y="1046" type="line"/>
    </contour>
    <contour>
      <point x="987" y="1347" type="curve" smooth="yes"/>
      <point x="1052" y="1347"/>
      <point x="1095" y="1400"/>
      <point x="1095" y="1462" type="curve" smooth="yes"/>
      <point x="1095" y="1524"/>
      <point x="1052" y="1577"/>
      <point x="987" y="1577" type="curve" smooth="yes"/>
      <point x="924" y="1577"/>
      <point x="875" y="1524"/>
      <point x="875" y="1462" type="curve" smooth="yes"/>
      <point x="875" y="1399"/>
      <point x="923" y="1347"/>
    </contour>
    <contour>
      <point x="298" y="0" type="move" name="bot"/>
    </contour>
  </outline>
</glyph>
<glyph name=".notdef" format="1">
  <advance width="1068"/>
  <outline>
    <contour>
      <point x="325" y="68" type="line"/>
      <point x="325" y="1297" type="line"/>
      <point x="733" y="1297" type="line"/>
      <point x="733" y="68" type="line"/>
    </contour>
    <contour>
      <point x="257" y="0" type="line"/>
      <point x="801" y="0" type="line"/>
      <point x="801" y="1365" type="line"/>
      <point x="257" y="1365" type="line"/>
    </contour>
  </outline>
</glyph>
<glyph name="caron.alt" format="1">
  <advance width="600"/>
  <outline>
    <component base="comma" yOffset="1582"/>
    <contour>
      <point x="30" y="1168" type="move" name="_caron.alt"/>
    </contour>
  </outline>
</glyph>
<glyph name="ff" format="1">
  <advance width="1308"/>
  <outline>
    <contour>
      <point x="172" y="0" type="line"/>
      <point x="362" y="0" type="line"/>
      <point x="362" y="1064" type="line"/>
      <point x="865" y="1064" type="line"/>
      <point x="865" y="0" type="line"/>
      <point x="1055" y="0" type="line"/>
      <point x="1055" y="1064" type="line"/>
      <point x="1403" y="1064" type="line"/>
      <point x="1403" y="1169" type="line"/>
      <point x="1055" y="1169" type="line"/>
      <point x="1055" y="1332"/>
      <point x="1005" y="1516"/>
      <point x="1220" y="1516" type="curve" smooth="yes"/>
      <point x="1279" y="1516"/>
      <point x="1333" y="1480"/>
      <point x="1375" y="1442" type="curve"/>
      <point x="1438" y="1567" type="line"/>
      <point x="1373" y="1615"/>
      <point x="1277" y="1659"/>
      <point x="1196" y="1659" type="curve" smooth="yes"/>
      <point x="892" y="1659"/>
      <point x="865" y="1421"/>
      <point x="865" y="1169" type="curve"/>
      <point x="362" y="1169" type="line"/>
      <point x="362" y="1332"/>
      <point x="312" y="1516"/>
      <point x="527" y="1516" type="curve" smooth="yes"/>
      <point x="586" y="1516"/>
      <point x="640" y="1480"/>
      <point x="682" y="1442" type="curve"/>
      <point x="745" y="1567" type="line"/>
      <point x="680" y="1615"/>
      <point x="584" y="1659"/>
      <point x="503" y="1659" type="curve" smooth="yes"/>
      <point x="199" y="1659"/>
      <point x="172" y="1421"/>
      <point x="172" y="1169" type="curve"/>
      <point x="-18" y="1169" type="line"/>
      <point x="-18" y="1064" type="line"/>
      <point x="172" y="1064" type="line"/>
    </contour>
  </outline>
</glyph>
<glyph name="lc_main_stem" format="1">
  <advance width="0"/>
  <outline>
    <contour>
      <point x="160" y="0" type="line"/>
      <point x="346" y="0" type="line"/>
      <point x="346" y="875" type="line"/>
      <point x="300" y="1169" type="line"/>
      <point x="160" y="1169" type="line"/>
    </contour>
  </outline>
</glyph>
<glyph name="uc_main_stem" format="1">
  <advance width="1608"/>
  <outline>
    <contour>
      <point x="189" y="0" type="line"/>
      <point x="383" y="0" type="line"/>
      <point x="383" y="1579" type="line"/>
      <point x="189" y="1579" type="line"/>
    </contour>
  </outline>
</glyph>
